<svg width="33" height="32" viewBox="0 0 33 32" fill="none" xmlns="http://www.w3.org/2000/svg">
<path d="M28.8414 17.1416H19.092C18.26 17.1416 17.5667 17.8349 17.5667 18.6882V27.8402C17.5667 29.5469 18.9427 30.9229 20.6494 30.9229H26.932C28.8414 30.9229 30.3667 29.6429 30.3667 27.7336V18.6882C30.3667 17.8349 29.6734 17.1416 28.8414 17.1416ZM27.1667 20.4162C27.1667 20.9176 26.7507 21.3336 26.2494 21.3336H21.748C21.2467 21.3336 20.8307 20.9176 20.8307 20.4162V20.1176C20.8307 19.6162 21.2467 19.2002 21.748 19.2002H26.2494C26.7507 19.2002 27.1667 19.6162 27.1667 20.1176V20.4162ZM13.8974 17.1416H4.18004C3.33738 17.1416 2.64404 17.8349 2.64404 18.6882V27.8402C2.64404 29.5469 4.02004 30.9229 5.73738 30.9229H11.988C13.8974 30.9229 15.4334 29.6429 15.4334 27.7336V18.6882C15.4334 17.8349 14.74 17.1416 13.8974 17.1416ZM12.2334 20.4056C12.2334 20.9176 11.8174 21.3336 11.3054 21.3336H6.76138C6.24938 21.3336 5.83338 20.9176 5.83338 20.4056V20.1282C5.83338 19.6162 6.24938 19.2002 6.76138 19.2002H11.3054C11.8174 19.2002 12.2334 19.6162 12.2334 20.1282V20.4056ZM21.3747 1.06689H11.668C10.836 1.06689 10.1427 1.76023 10.1427 2.62423V11.8296C10.1427 13.5469 11.508 14.9336 13.2254 14.9336H19.4654C21.3747 14.9336 22.9 13.6429 22.9 11.7229V2.62423C22.9 1.76023 22.2067 1.06689 21.3747 1.06689ZM19.7 4.42689C19.7 4.93889 19.284 5.35489 18.772 5.35489H14.196C13.684 5.35489 13.268 4.93889 13.268 4.42689V4.13889C13.268 3.62689 13.684 3.22156 14.196 3.22156H18.772C19.284 3.22156 19.7 3.62689 19.7 4.13889V4.42689Z" fill="#B7B7B7"/>
</svg>
