<svg width="24" height="24" viewBox="0 0 24 24" fill="none" xmlns="http://www.w3.org/2000/svg">
<path fill-rule="evenodd" clip-rule="evenodd" d="M1.86475 4.88232C1.86475 4.39908 2.2565 4.00732 2.73975 4.00732H21.26C21.7433 4.00732 22.135 4.39908 22.135 4.88232C22.135 5.36557 21.7433 5.75732 21.26 5.75732H2.73975C2.2565 5.75732 1.86475 5.36557 1.86475 4.88232ZM1.86475 12.0161C1.86475 11.5328 2.2565 11.1411 2.73975 11.1411H21.26C21.7433 11.1411 22.135 11.5328 22.135 12.0161C22.135 12.4993 21.7433 12.8911 21.26 12.8911H2.73975C2.2565 12.8911 1.86475 12.4993 1.86475 12.0161ZM2.73975 18.2748C2.2565 18.2748 1.86475 18.6665 1.86475 19.1498C1.86475 19.633 2.2565 20.0248 2.73975 20.0248H21.26C21.7433 20.0248 22.135 19.633 22.135 19.1498C22.135 18.6665 21.7433 18.2748 21.26 18.2748H2.73975Z" fill="#212121"/>
</svg>
