<svg width="16" height="16" viewBox="0 0 16 16" fill="none" xmlns="http://www.w3.org/2000/svg">
<path d="M13.1622 2.32607C13.0301 2.32919 12.9047 2.38442 12.8132 2.47971L8.00008 7.29286L3.18693 2.47971C3.14032 2.43172 3.08456 2.39356 3.02294 2.36751C2.96132 2.34145 2.8951 2.32802 2.8282 2.32802C2.7287 2.32804 2.63146 2.35776 2.54893 2.41335C2.46641 2.46895 2.40234 2.54791 2.36494 2.64012C2.32754 2.73233 2.3185 2.8336 2.33898 2.93098C2.35946 3.02836 2.40852 3.11741 2.4799 3.18674L7.29305 7.9999L2.4799 12.813C2.43191 12.8591 2.3936 12.9143 2.36721 12.9754C2.34082 13.0364 2.32687 13.1021 2.3262 13.1687C2.32552 13.2352 2.33812 13.3012 2.36327 13.3628C2.38841 13.4244 2.42559 13.4803 2.47263 13.5273C2.51967 13.5744 2.57562 13.6116 2.63721 13.6367C2.6988 13.6619 2.76479 13.6745 2.83131 13.6738C2.89783 13.6731 2.96354 13.6592 3.02461 13.6328C3.08567 13.6064 3.14085 13.5681 3.18693 13.5201L8.00008 8.70693L12.8132 13.5201C12.8593 13.5681 12.9145 13.6064 12.9755 13.6328C13.0366 13.6592 13.1023 13.6731 13.1688 13.6738C13.2354 13.6745 13.3014 13.6618 13.3629 13.6367C13.4245 13.6116 13.4805 13.5744 13.5275 13.5273C13.5746 13.4803 13.6117 13.4244 13.6369 13.3628C13.662 13.3012 13.6746 13.2352 13.674 13.1687C13.6733 13.1021 13.6593 13.0364 13.6329 12.9754C13.6066 12.9143 13.5682 12.8591 13.5203 12.813L8.70711 7.9999L13.5203 3.18674C13.593 3.11696 13.6429 3.02683 13.6635 2.92818C13.6841 2.82952 13.6744 2.72695 13.6357 2.6339C13.597 2.54085 13.531 2.46167 13.4466 2.40674C13.3621 2.35181 13.2629 2.32369 13.1622 2.32607Z" fill="#B7B7B7"/>
</svg>
