<svg width="64" height="24" viewBox="0 0 64 24" fill="none" xmlns="http://www.w3.org/2000/svg">
<g clip-path="url(#clip0_249_58070)">
<g clip-path="url(#clip1_249_58070)">
<path d="M-0.54541 16.0909H32.1686V24.2728H-0.54541V16.0909Z" fill="black"/>
<path d="M-0.54541 7.90906H32.1686V16.0909H-0.54541V7.90906Z" fill="white"/>
<path d="M-0.54541 -0.272705H32.1686V7.90911H-0.54541V-0.272705Z" fill="#CE1126"/>
<path d="M15.8441 12.0982L18.6452 14.7L18.4449 9.97501C18.4162 9.2591 17.7947 9.42273 17.3408 9.68046C16.8869 9.97501 16.3593 9.97501 15.8114 9.78273C15.2593 9.97501 14.7359 9.97501 14.282 9.68046C13.8322 9.42273 13.2065 9.2591 13.1779 9.97501L12.9775 14.7L15.8441 12.0982Z" fill="white"/>
<path fill-rule="evenodd" clip-rule="evenodd" d="M13.5702 9.43608C13.7947 9.41909 14.0695 9.52791 14.2954 9.65736C14.2959 9.65761 14.2963 9.65786 14.2967 9.65813C14.7415 9.9468 15.2558 9.94815 15.8029 9.7576C15.8085 9.75562 15.8147 9.75563 15.8204 9.75762C16.3634 9.94814 16.8816 9.94681 17.3265 9.65813C17.327 9.65784 17.3274 9.65757 17.3279 9.65731C17.5557 9.52792 17.8305 9.41909 18.0545 9.43608C18.1677 9.44467 18.2695 9.48554 18.3445 9.57343C18.4191 9.66082 18.4643 9.7914 18.4716 9.97392L18.672 14.6989C18.6725 14.7096 18.6664 14.7196 18.6566 14.7241C18.6468 14.7286 18.6353 14.7268 18.6274 14.7195L15.8441 12.1343L12.9956 14.7197C12.9877 14.7269 12.9762 14.7286 12.9665 14.7241C12.9568 14.7195 12.9507 14.7096 12.9512 14.6989L13.1516 9.97392C13.1516 9.97391 13.1516 9.9739 13.1516 9.97389C13.1589 9.79135 13.2044 9.66076 13.2793 9.57338C13.3546 9.48552 13.4568 9.44466 13.5702 9.43608ZM15.8443 12.0982L15.8624 12.0787L18.6162 14.6365L18.4185 9.97611L18.4185 9.97605C18.4115 9.80061 18.3683 9.68318 18.3041 9.60796C18.2403 9.53323 18.153 9.49689 18.0505 9.48911C17.8433 9.47339 17.5806 9.57503 17.3548 9.70318C16.8944 10.0016 16.3612 10.0017 15.8116 9.81086C15.258 10.0017 14.7288 10.0016 14.2684 9.70315C14.0446 9.57505 13.782 9.47339 13.5742 9.48911C13.4714 9.49689 13.3837 9.53325 13.3196 9.608C13.2551 9.68323 13.2117 9.80065 13.2047 9.97605L13.2047 9.97611L13.007 14.6375L15.8265 12.0785L15.8443 12.0982Z" fill="#C09300"/>
<path d="M13.501 9.8114L13.3047 14.4055L12.9775 14.7L13.1779 9.97504C13.2745 9.90092 13.3841 9.84543 13.501 9.8114ZM13.8935 10.1387L13.73 13.9841L13.4028 14.3196L13.5991 9.88095C13.6645 9.9464 13.8567 10.1059 13.8935 10.1387ZM14.2493 10.4332L14.1225 13.6405L13.8567 13.8982L14.0203 10.2409C14.0857 10.3023 14.2166 10.3964 14.2493 10.4332ZM14.6378 10.5969L14.511 13.3296L14.2534 13.5382L14.3802 10.4987C14.4456 10.5273 14.5723 10.5969 14.6378 10.5969ZM14.9976 10.5969L14.9036 12.8755L14.6378 13.1332L14.74 10.6255C14.8013 10.6255 14.969 10.6255 14.9976 10.5969Z" fill="#C09300"/>
<path d="M15.9424 12.6136L16.3349 14.4055L16.2041 14.5364L16.0691 14.4341L15.8483 12.8386L15.9424 14.4341L15.8115 14.5977L15.6847 14.4341L15.7788 12.8386L15.5539 14.4341L15.4189 14.5364L15.2881 14.4055L15.6807 12.6177H15.9424V12.6136Z" fill="#C09300"/>
<path fill-rule="evenodd" clip-rule="evenodd" d="M15.6628 12.5952H15.9426V12.6112L15.9645 12.6088L16.3597 14.4126L16.2063 14.5661L16.0483 14.4464L15.9046 13.4079L15.9655 14.4414L15.8114 14.6341L15.662 14.4412L15.7239 13.3903L15.5751 14.4464L15.4171 14.5661L15.2637 14.4126L15.6628 12.5952ZM15.9254 12.6402H15.6989L15.3129 14.3982L15.4212 14.5066L15.5331 14.4217L15.7567 12.8355L15.8014 12.8399L15.7079 14.427L15.812 14.5613L15.9196 14.4268L15.8261 12.8399L15.8708 12.8355L16.0903 14.4218L16.2022 14.5066L16.3105 14.3982L15.9254 12.6402Z" fill="#C09300"/>
<path d="M14.9324 11.8282L14.1514 14.5978L15.2268 14.7614L15.6807 12.6792L14.9324 11.8282Z" fill="white"/>
<path fill-rule="evenodd" clip-rule="evenodd" d="M14.9271 11.8043C14.9359 11.8023 14.945 11.8053 14.951 11.812L15.6993 12.663C15.7044 12.6688 15.7065 12.6768 15.7048 12.6844L15.2509 14.7667C15.2482 14.7793 15.2361 14.7877 15.2233 14.7857L14.1478 14.6221C14.1408 14.621 14.1347 14.617 14.1309 14.6111C14.1271 14.6052 14.126 14.5979 14.1279 14.5911L14.9089 11.8216C14.9114 11.8129 14.9183 11.8063 14.9271 11.8043ZM14.9439 11.8783L14.1826 14.5777L15.2079 14.7337L15.6543 12.6861L14.9439 11.8783Z" fill="#C09300"/>
<path fill-rule="evenodd" clip-rule="evenodd" d="M15.2944 12.5389L14.7873 13.0216C14.781 13.0276 14.7721 13.0302 14.7635 13.0284C14.7549 13.0266 14.7478 13.0207 14.7444 13.0126L14.6504 12.7876L14.6994 12.7671L14.7786 12.9565L15.2577 12.5004L15.2944 12.5389Z" fill="#C09300"/>
<path fill-rule="evenodd" clip-rule="evenodd" d="M15.1066 13.2015L15.0003 12.2074L15.0532 12.2018L15.1524 13.1293L15.435 12.7572L15.4773 12.7893L15.3563 12.9487L15.4869 13.4043L15.5484 13.3109L15.5928 13.3402L15.5062 13.4717L15.5267 13.5432L15.4756 13.5578L15.4676 13.5302L15.2401 13.8756L15.3513 14.4L15.2993 14.411L15.198 13.9337L14.9877 14.2564C14.9821 14.265 14.972 14.2696 14.9619 14.2682C14.9517 14.2669 14.9433 14.2598 14.9401 14.2501L14.831 13.9121L14.6241 14.2477C14.6185 14.2567 14.6081 14.2615 14.5976 14.26C14.5871 14.2585 14.5786 14.2509 14.5758 14.2406L14.4081 13.6188C14.4057 13.6097 14.4082 13.6 14.4148 13.5933L14.7501 13.2497C14.7568 13.2429 14.7665 13.2401 14.7758 13.2425C14.785 13.2449 14.7922 13.252 14.7948 13.2612L14.8826 13.581L15.0913 13.3014C15.0977 13.2929 15.1084 13.289 15.1187 13.2915C15.129 13.2939 15.1369 13.3022 15.1388 13.3127L15.2261 13.8002L15.4483 13.4628L15.3161 13.0016L15.1542 13.2148C15.1476 13.2235 15.1364 13.2272 15.1259 13.2243C15.1154 13.2214 15.1078 13.2124 15.1066 13.2015ZM15.1827 13.8598L15.0973 13.3824L14.8927 13.6564C14.8866 13.6646 14.8764 13.6685 14.8664 13.6666C14.8564 13.6648 14.8484 13.6574 14.8457 13.6476L14.7558 13.32L14.4634 13.6196L14.6111 14.1674L14.816 13.8352C14.8215 13.8264 14.8315 13.8215 14.8418 13.8228C14.8521 13.824 14.8608 13.8311 14.8639 13.841L14.9736 14.1807L15.1827 13.8598Z" fill="#C09300"/>
<path fill-rule="evenodd" clip-rule="evenodd" d="M14.6017 14.2034C14.6117 14.205 14.6199 14.2123 14.6228 14.2221L14.7447 14.6345L14.9099 14.3591C14.9152 14.3502 14.9253 14.3452 14.9357 14.3464C14.946 14.3475 14.9547 14.3547 14.9579 14.3646L15.0847 14.7573L15.0341 14.7737L14.9253 14.4367L14.7592 14.7137C14.7537 14.7228 14.7435 14.7278 14.733 14.7264C14.7225 14.7251 14.7139 14.7177 14.7109 14.7076L14.5874 14.2897L14.4023 14.5518L14.3589 14.5211L14.5756 14.2142C14.5815 14.2059 14.5916 14.2017 14.6017 14.2034Z" fill="#C09300"/>
<path d="M15.8119 15.8373C16.6297 15.8373 17.4067 15.7719 17.8647 15.645C18.0569 15.6082 18.0569 15.51 18.0569 15.3791C18.2532 15.3137 18.155 15.0846 18.29 15.0846C18.1509 15.1255 18.1264 14.8596 17.9628 14.8923C17.9628 14.6632 17.7297 14.6346 17.5376 14.7C17.1491 14.8269 16.4621 14.8596 15.8119 14.8596C15.1576 14.8269 14.4788 14.8269 14.0862 14.696C13.894 14.6346 13.665 14.6632 13.665 14.8923C13.5015 14.8596 13.4728 15.1214 13.3379 15.0846C13.4728 15.0846 13.3706 15.3178 13.5669 15.3791C13.5669 15.51 13.5669 15.6082 13.7632 15.645C14.213 15.7719 14.9981 15.8373 15.8119 15.8373Z" fill="white"/>
<path fill-rule="evenodd" clip-rule="evenodd" d="M13.7873 14.6388C13.8821 14.606 13.9991 14.6167 14.1009 14.6492L14.1015 14.6494L14.1015 14.6494C14.2913 14.7127 14.5537 14.7452 14.854 14.7656C15.039 14.7782 15.2355 14.7861 15.4362 14.7942C15.5608 14.7992 15.6869 14.8042 15.8129 14.8105C16.4638 14.8105 17.1421 14.7773 17.5218 14.6535C17.6239 14.6188 17.7418 14.607 17.8376 14.6392C17.8864 14.6556 17.9308 14.6839 17.9627 14.7274C17.9861 14.7593 18.0015 14.7975 18.008 14.8414C18.04 14.8449 18.0677 14.8572 18.0917 14.8744C18.1261 14.899 18.153 14.9339 18.1743 14.9616L18.175 14.9626C18.1982 14.9928 18.2149 15.0146 18.2328 15.0282C18.2409 15.0345 18.2482 15.0382 18.2559 15.0394C18.2667 15.0368 18.278 15.0355 18.2897 15.0355C18.3141 15.0355 18.3348 15.0535 18.3383 15.0776C18.3418 15.1018 18.327 15.1248 18.3036 15.1317C18.293 15.1348 18.2829 15.1367 18.2731 15.1375C18.2714 15.1388 18.2692 15.1412 18.2666 15.1458C18.2592 15.1587 18.2547 15.1764 18.2475 15.2046C18.2463 15.2093 18.2451 15.2143 18.2437 15.2196C18.2351 15.2528 18.2232 15.2947 18.1977 15.3328C18.1765 15.3645 18.147 15.3922 18.1056 15.4122C18.1051 15.4653 18.1015 15.5221 18.076 15.5703C18.0425 15.6339 17.9781 15.6729 17.8757 15.6929C17.4108 15.8212 16.6294 15.8864 15.8116 15.8864C14.9982 15.8864 14.2086 15.8213 13.7517 15.6929C13.6476 15.673 13.5822 15.6342 13.548 15.5707C13.522 15.5225 13.5182 15.4657 13.5177 15.4127C13.4764 15.3934 13.447 15.366 13.4261 15.3343C13.4009 15.2961 13.3895 15.2538 13.3814 15.2203C13.3801 15.2146 13.3788 15.2093 13.3776 15.2043C13.371 15.1763 13.3668 15.1586 13.3597 15.1455C13.3568 15.1402 13.3545 15.138 13.353 15.1369C13.3439 15.1362 13.3345 15.1346 13.3247 15.132C13.301 15.1255 13.2857 15.1025 13.289 15.0781C13.2923 15.0537 13.3131 15.0355 13.3376 15.0355C13.3482 15.0355 13.3584 15.0365 13.3682 15.0387C13.3761 15.0375 13.3837 15.0337 13.3926 15.0268C13.41 15.0131 13.4265 14.9922 13.4487 14.9638C13.4497 14.9624 13.4508 14.9611 13.4519 14.9597C13.4736 14.932 13.5009 14.8977 13.5356 14.8735C13.5597 14.8567 13.5875 14.8446 13.6193 14.8413C13.6258 14.7976 13.6408 14.7596 13.6638 14.7277C13.6952 14.684 13.739 14.6556 13.7873 14.6388ZM13.4499 15.1065C13.4615 15.131 13.4683 15.1604 13.4739 15.1845C13.4749 15.189 13.4759 15.1933 13.4769 15.1974C13.4847 15.2299 13.493 15.2574 13.508 15.2802C13.5219 15.3013 13.543 15.3203 13.5813 15.3323C13.6018 15.3387 13.6157 15.3577 13.6157 15.3792C13.6157 15.4484 13.6169 15.4917 13.6344 15.5241C13.649 15.5512 13.681 15.5798 13.772 15.5968C13.7734 15.5971 13.7748 15.5974 13.7762 15.5978C14.2193 15.7227 14.9988 15.7882 15.8116 15.7882C16.6285 15.7882 17.4 15.7227 17.8514 15.5978C17.8526 15.5974 17.8539 15.5971 17.8552 15.5969C17.9438 15.5799 17.975 15.5515 17.9892 15.5245C18.0064 15.4919 18.0076 15.4484 18.0076 15.3792C18.0076 15.358 18.0211 15.3393 18.0411 15.3326C18.0798 15.3197 18.1016 15.3 18.1161 15.2782C18.1316 15.255 18.1404 15.2273 18.1487 15.1951C18.1497 15.1912 18.1507 15.187 18.1518 15.1827C18.1575 15.1596 18.1645 15.1318 18.1757 15.1081C18.1748 15.1075 18.174 15.1069 18.1732 15.1062C18.1446 15.0844 18.1205 15.0529 18.1008 15.0272C18.0993 15.0252 18.0979 15.0233 18.0964 15.0214C18.0738 14.992 18.0552 14.969 18.0346 14.9542C18.0165 14.9413 17.9979 14.9353 17.9722 14.9405C17.9578 14.9434 17.9428 14.9396 17.9315 14.9303C17.9201 14.921 17.9135 14.907 17.9135 14.8923C17.9135 14.8437 17.9013 14.8096 17.8836 14.7855C17.8658 14.7613 17.8399 14.7435 17.8064 14.7323C17.7378 14.7093 17.6431 14.7159 17.5531 14.7465L17.5525 14.7467L17.5525 14.7467C17.1554 14.8764 16.4606 14.9087 15.8116 14.9087C15.8108 14.9087 15.81 14.9087 15.8092 14.9086C15.6851 14.9024 15.5594 14.8974 15.4346 14.8924C15.2327 14.8843 15.0333 14.8762 14.8473 14.8636C14.5467 14.8431 14.2735 14.8102 14.0708 14.7426C13.9805 14.7139 13.887 14.7082 13.8194 14.7316C13.7864 14.743 13.7609 14.7608 13.7434 14.7851C13.726 14.8093 13.7139 14.8435 13.7139 14.8923C13.7139 14.907 13.7073 14.921 13.6959 14.9303C13.6845 14.9396 13.6696 14.9434 13.6552 14.9405C13.6292 14.9353 13.6101 14.9412 13.5917 14.954C13.5708 14.9686 13.5519 14.9912 13.5291 15.0203C13.5273 15.0225 13.5255 15.0249 13.5237 15.0272C13.5041 15.0524 13.4804 15.0828 13.4528 15.1042C13.4519 15.105 13.4509 15.1057 13.4499 15.1065Z" fill="#C09300"/>
<path d="M14.7037 14.5978C14.9654 14.6346 15.2598 14.6633 15.4888 14.6346C15.6197 14.6346 15.7137 14.8596 15.452 14.8924C15.2271 14.921 14.8673 14.8924 14.6751 14.8596C14.4221 14.8154 14.1711 14.7608 13.9226 14.696C13.6936 14.5978 13.8572 14.4096 13.9881 14.4342C14.2215 14.509 14.4609 14.5638 14.7037 14.5978ZM16.9201 14.5978C16.6584 14.6346 16.3639 14.6633 16.1431 14.6346C16.0041 14.6346 15.91 14.8596 16.1717 14.8924C16.4007 14.921 16.7565 14.8924 16.9487 14.8596C17.1123 14.8269 17.4721 14.7656 17.7011 14.696C17.9301 14.5978 17.7665 14.4096 17.6357 14.4342C17.4022 14.509 17.1628 14.5638 16.9201 14.5978Z" fill="white"/>
<path fill-rule="evenodd" clip-rule="evenodd" d="M13.931 14.6708C13.8785 14.6479 13.8525 14.6217 13.8416 14.5988C13.8308 14.5763 13.8327 14.5531 13.8438 14.5311C13.8553 14.5086 13.8765 14.4881 13.9025 14.4745C13.9279 14.4612 13.956 14.4557 13.9814 14.46C14.2157 14.535 14.456 14.5899 14.6997 14.6241M13.931 14.6708C14.1782 14.7351 14.4278 14.7894 14.6793 14.8334C14.8702 14.8659 15.2271 14.8942 15.4484 14.866L15.4485 14.866C15.5103 14.8582 15.5472 14.8396 15.5676 14.8194C15.5874 14.7998 15.5936 14.7769 15.591 14.7544C15.5853 14.7067 15.5403 14.6621 15.4901 14.6612C15.2575 14.69 14.9609 14.6609 14.6997 14.6241M13.8779 14.4273C13.9122 14.4094 13.953 14.4006 13.9927 14.408C13.9938 14.4082 13.9949 14.4085 13.9959 14.4089C14.2279 14.4832 14.4658 14.5376 14.7071 14.5715L14.7034 14.5978L14.7071 14.5715C14.9688 14.6083 15.2601 14.6364 15.4853 14.6082C15.4863 14.6081 15.4875 14.608 15.4886 14.608C15.5686 14.608 15.6352 14.6756 15.6438 14.7481C15.6482 14.7859 15.6371 14.8254 15.605 14.8572C15.5735 14.8884 15.524 14.9101 15.4551 14.9187C15.2265 14.9478 14.8638 14.9188 14.6703 14.8858L14.6702 14.8858C14.4166 14.8414 14.1648 14.7867 13.9157 14.7217C13.9144 14.7214 13.9131 14.721 13.9119 14.7204C13.8512 14.6944 13.8122 14.6606 13.7936 14.6217C13.7747 14.582 13.779 14.5413 13.7965 14.507C13.8136 14.4732 13.8436 14.4452 13.8779 14.4273ZM17.8296 14.6217C17.811 14.6606 17.772 14.6944 17.7113 14.7204C17.7104 14.7208 17.7095 14.7212 17.7086 14.7214C17.5251 14.7772 17.2583 14.8277 17.0753 14.8623C17.0283 14.8712 16.9868 14.8791 16.9536 14.8857L16.9529 14.8858C16.7594 14.9188 16.4008 14.9478 16.1682 14.9187C16.0992 14.9101 16.0497 14.8884 16.0183 14.8571C15.9863 14.8253 15.9754 14.7856 15.9805 14.7476C15.9904 14.6745 16.0596 14.608 16.1428 14.608C16.144 14.608 16.1451 14.6081 16.1462 14.6083C16.3631 14.6364 16.6544 14.6083 16.9161 14.5715L16.9198 14.5978L16.9161 14.5715C17.1574 14.5376 17.3953 14.4832 17.6273 14.4089C17.6283 14.4085 17.6294 14.4082 17.6305 14.408C17.6702 14.4006 17.711 14.4094 17.7453 14.4273C17.7796 14.4452 17.8096 14.4732 17.8268 14.507C17.8442 14.5413 17.8485 14.582 17.8296 14.6217ZM16.9235 14.6241C16.6625 14.6609 16.3658 14.69 16.1412 14.6612C16.0861 14.6621 16.0396 14.7077 16.0332 14.7548C16.0302 14.7771 16.0362 14.7999 16.0558 14.8194C16.076 14.8396 16.1128 14.8582 16.1748 14.866C16.4 14.8941 16.7526 14.866 16.9436 14.8335C16.9777 14.8267 17.0199 14.8187 17.0674 14.8097C17.2501 14.7751 17.5114 14.7256 17.6917 14.671C17.7446 14.6481 17.7707 14.6218 17.7816 14.5988C17.7924 14.5763 17.7906 14.5531 17.7794 14.5311C17.7679 14.5086 17.7467 14.4881 17.7208 14.4745C17.6953 14.4612 17.6672 14.4557 17.6418 14.46C17.4075 14.5351 17.1672 14.59 16.9235 14.6241" fill="#C09300"/>
<path d="M13.8895 14.471C13.6932 14.4342 13.6032 14.6633 13.6646 14.7942C13.6932 14.7287 13.8281 14.7287 13.8567 14.6633C13.8935 14.5651 13.8281 14.5651 13.8935 14.471H13.8895ZM14.6746 15.0724C14.6746 14.9414 14.8014 14.9578 14.8014 14.8269C14.8014 14.7655 14.7686 14.6633 14.7032 14.6633C14.6692 14.6652 14.637 14.6796 14.6129 14.7038C14.5887 14.7279 14.5743 14.7601 14.5724 14.7942C14.5437 14.921 14.6746 14.9414 14.6746 15.0724ZM15.6029 14.7001C15.7951 14.7001 15.7746 14.9578 15.6846 15.0887C15.6846 14.9946 15.5211 14.9578 15.5211 14.8924C15.5211 14.7942 15.6683 14.7942 15.6029 14.7001ZM17.7293 14.471C17.9296 14.4342 18.0237 14.6633 17.9583 14.7942C17.9296 14.7287 17.7947 14.7287 17.7661 14.6633C17.7293 14.5651 17.7947 14.5651 17.7293 14.471ZM16.9564 15.0683C16.9564 14.9374 16.8255 14.9537 16.8255 14.8228C16.8255 14.7614 16.8583 14.6592 16.9237 14.6592C16.9578 14.6611 16.9899 14.6755 17.014 14.6997C17.0382 14.7238 17.0526 14.756 17.0545 14.7901C17.0832 14.9169 16.9523 14.9374 16.9523 15.0683H16.9564ZM16.0159 14.7001C15.8237 14.7001 15.8441 14.9578 15.9341 15.0887C15.9341 14.9946 16.0977 14.9578 16.0977 14.8924C16.0977 14.7942 15.9504 14.7942 16.0159 14.7001Z" fill="white"/>
<path fill-rule="evenodd" clip-rule="evenodd" d="M13.8921 14.4444C13.7821 14.4248 13.7011 14.4801 13.6575 14.5565C13.6146 14.6319 13.6058 14.731 13.6407 14.8055C13.6451 14.8149 13.6547 14.8209 13.6651 14.8208C13.6755 14.8206 13.6849 14.8144 13.6891 14.8048C13.6931 14.7957 13.7016 14.787 13.7165 14.7781C13.7315 14.7692 13.7498 14.7618 13.7707 14.7534L13.7718 14.753C13.7915 14.7451 13.8136 14.7363 13.8325 14.725C13.8519 14.7134 13.871 14.6975 13.8813 14.6739C13.8815 14.6735 13.8817 14.673 13.8819 14.6726C13.892 14.6455 13.8955 14.6239 13.8956 14.6051C13.8957 14.5906 13.8936 14.5777 13.8919 14.568C13.8916 14.5657 13.8912 14.5636 13.8909 14.5617C13.8894 14.5513 13.8889 14.5433 13.8914 14.5333C13.894 14.5228 13.9003 14.5081 13.9156 14.4862C13.9212 14.4781 13.9219 14.4675 13.9173 14.4587C13.9127 14.4499 13.9037 14.4444 13.8938 14.4444H13.8921ZM13.8495 14.4936C13.7827 14.4933 13.7335 14.5306 13.7037 14.5829C13.676 14.6314 13.6664 14.6908 13.6758 14.7413C13.6802 14.7381 13.6847 14.7352 13.6892 14.7325C13.7082 14.7212 13.7303 14.7123 13.75 14.7044L13.751 14.704C13.7719 14.6957 13.7903 14.6882 13.8053 14.6793C13.8198 14.6706 13.8283 14.6621 13.8324 14.6532C13.8404 14.6316 13.8424 14.6166 13.8425 14.6049C13.8425 14.5953 13.8413 14.5878 13.8398 14.5786C13.8393 14.5758 13.8388 14.5728 13.8383 14.5695C13.8363 14.5559 13.835 14.5401 13.8398 14.5206C13.8419 14.512 13.8451 14.5031 13.8495 14.4936ZM17.7295 14.471L17.7077 14.4862C17.7229 14.5081 17.7293 14.5228 17.7319 14.5333C17.7343 14.5433 17.7339 14.5513 17.7323 14.5617C17.732 14.5636 17.7317 14.5657 17.7313 14.568C17.7297 14.5777 17.7276 14.5906 17.7276 14.6051C17.7277 14.6239 17.7312 14.6455 17.7414 14.6726C17.7416 14.673 17.7417 14.6735 17.7419 14.6739C17.7522 14.6975 17.7714 14.7134 17.7907 14.725C17.8097 14.7363 17.8318 14.7451 17.8515 14.753L17.8525 14.7534C17.8734 14.7618 17.8918 14.7692 17.9068 14.7781C17.9216 14.787 17.9301 14.7957 17.9341 14.8048C17.9383 14.8143 17.9475 14.8205 17.9578 14.8208C17.9681 14.821 17.9776 14.8153 17.9823 14.8061C18.0196 14.7313 18.0107 14.6317 17.9666 14.5563C17.9215 14.4792 17.8376 14.4241 17.7247 14.4448L17.7295 14.471ZM17.9207 14.5831C17.8907 14.5317 17.841 14.4945 17.7737 14.4937C17.7782 14.5031 17.7814 14.512 17.7835 14.5206C17.7883 14.5401 17.7869 14.5559 17.7849 14.5695C17.7844 14.5728 17.7839 14.5758 17.7835 14.5786C17.782 14.5878 17.7808 14.5953 17.7808 14.6049C17.7808 14.6165 17.7829 14.6316 17.7909 14.6532C17.795 14.6621 17.8034 14.6706 17.818 14.6793C17.833 14.6882 17.8513 14.6957 17.8723 14.704L17.8733 14.7044C17.893 14.7123 17.9151 14.7212 17.934 14.7325C17.9389 14.7354 17.9437 14.7386 17.9484 14.742C17.9589 14.6915 17.9493 14.6319 17.9207 14.5831ZM16.8741 14.7297C16.8597 14.7591 16.8523 14.7959 16.8523 14.8228C16.8523 14.8506 16.8591 14.8691 16.8685 14.8835C16.8784 14.8988 16.8919 14.9108 16.9087 14.9255L16.9097 14.9264C16.9232 14.9382 16.9388 14.9519 16.952 14.9695C16.9632 14.9497 16.9763 14.9331 16.9881 14.918C16.9899 14.9157 16.9917 14.9135 16.9934 14.9113C17.008 14.8926 17.0193 14.8769 17.026 14.8592C17.0323 14.8425 17.0349 14.8227 17.0288 14.7959C17.0285 14.7945 17.0283 14.7931 17.0282 14.7916C17.0266 14.764 17.015 14.738 16.9955 14.7185C16.9761 14.6992 16.9505 14.6875 16.9232 14.6858C16.9064 14.6861 16.889 14.6996 16.8741 14.7297ZM16.9814 15.0413C16.9881 15.0044 17.0082 14.9786 17.0312 14.9493C17.0326 14.9475 17.0339 14.9458 17.0353 14.944C17.0499 14.9253 17.0659 14.904 17.0757 14.8781C17.0857 14.8517 17.0888 14.822 17.0812 14.7864C17.0783 14.7466 17.0613 14.7091 17.0331 14.6809C17.0043 14.6521 16.966 14.635 16.9254 14.6326C16.9251 14.6326 16.9249 14.6326 16.9246 14.6326C16.9244 14.6326 16.9241 14.6326 16.9239 14.6326C16.8755 14.6326 16.8441 14.6703 16.8264 14.7062C16.8082 14.7434 16.7992 14.7883 16.7992 14.8228C16.7992 14.8605 16.8087 14.8891 16.8239 14.9125C16.8382 14.9345 16.8569 14.9509 16.8727 14.9647L16.8737 14.9656C16.8905 14.9802 16.9039 14.9922 16.9139 15.0076C16.9199 15.0168 16.9248 15.0278 16.9276 15.0417C16.9265 15.0501 16.9259 15.059 16.9259 15.0683C16.9259 15.083 16.9378 15.0949 16.9525 15.0949H16.9566C16.9713 15.0949 16.9832 15.083 16.9832 15.0683C16.9832 15.0587 16.9826 15.0498 16.9814 15.0413ZM14.7019 14.6367C14.7024 14.6367 14.7029 14.6367 14.7034 14.6367C14.7519 14.6367 14.7832 14.6744 14.8009 14.7103C14.8192 14.7475 14.8282 14.7924 14.8282 14.8269C14.8282 14.8644 14.819 14.8929 14.8043 14.9162C14.7904 14.9383 14.7722 14.9547 14.757 14.9685L14.756 14.9694C14.7398 14.984 14.7267 14.996 14.7171 15.0113C14.708 15.0258 14.7014 15.0444 14.7014 15.0724H14.6482C14.6482 15.0199 14.6243 14.9893 14.5961 14.9534C14.5948 14.9516 14.5934 14.9499 14.592 14.9481C14.5774 14.9294 14.5614 14.9081 14.5516 14.8821C14.5417 14.8558 14.5385 14.8261 14.5462 14.7904C14.549 14.7507 14.5661 14.7132 14.5943 14.685C14.623 14.6562 14.6613 14.639 14.7019 14.6367ZM14.6767 14.9761C14.6653 14.9553 14.6516 14.9378 14.6392 14.9221C14.6374 14.9198 14.6356 14.9176 14.6339 14.9154C14.6193 14.8967 14.608 14.881 14.6013 14.8633C14.595 14.8466 14.5925 14.8268 14.5985 14.8C14.5988 14.7986 14.599 14.7972 14.5991 14.7957C14.6007 14.7681 14.6124 14.7421 14.6319 14.7226C14.6512 14.7033 14.6769 14.6916 14.7041 14.6899C14.7209 14.6902 14.7384 14.7037 14.7532 14.7338C14.7676 14.7632 14.775 14.8 14.775 14.8269C14.775 14.8549 14.7684 14.8734 14.7593 14.8879C14.7496 14.9032 14.7366 14.9152 14.7204 14.9299L14.7194 14.9308C14.7058 14.9431 14.6898 14.9575 14.6767 14.9761ZM15.5795 14.6878C15.5841 14.679 15.5932 14.6735 15.6031 14.6735C15.6576 14.6735 15.6999 14.6921 15.7293 14.7246C15.758 14.7563 15.7721 14.7988 15.7762 14.8428C15.7845 14.9302 15.755 15.0336 15.7068 15.1038C15.7002 15.1134 15.6881 15.1176 15.677 15.1141C15.6659 15.1107 15.6583 15.1004 15.6583 15.0887C15.6583 15.0736 15.6519 15.0596 15.6392 15.045C15.6262 15.0299 15.6081 15.016 15.5876 15.0015C15.5843 14.999 15.5808 14.9966 15.5773 14.9941C15.5606 14.9824 15.5428 14.9699 15.5288 14.957C15.5122 14.9416 15.4947 14.9204 15.4947 14.8924C15.4947 14.8348 15.5351 14.8022 15.5613 14.7811C15.5643 14.7787 15.5671 14.7765 15.5696 14.7743C15.5842 14.7621 15.5905 14.7546 15.5925 14.7481C15.5938 14.7441 15.595 14.7351 15.5813 14.7153C15.5756 14.7071 15.5749 14.6965 15.5795 14.6878ZM15.6456 14.7325C15.6646 14.7383 15.6789 14.7481 15.6899 14.7602C15.7085 14.7809 15.7198 14.811 15.7233 14.8478C15.7286 14.9038 15.7153 14.9695 15.6904 15.0244C15.687 15.0194 15.6833 15.0146 15.6794 15.0101C15.6618 14.9898 15.639 14.9727 15.6185 14.9581C15.6145 14.9553 15.6105 14.9525 15.6067 14.9498C15.5902 14.9382 15.576 14.9281 15.5649 14.9179C15.5508 14.905 15.5479 14.8971 15.5479 14.8924C15.5479 14.8615 15.5672 14.8454 15.5952 14.8222C15.598 14.8199 15.6008 14.8175 15.6038 14.8151C15.6178 14.8033 15.6361 14.787 15.6433 14.7639C15.6465 14.7536 15.6472 14.7431 15.6456 14.7325ZM15.8899 14.7246C15.9193 14.6921 15.9616 14.6735 16.0161 14.6735C16.026 14.6735 16.0351 14.679 16.0396 14.6878C16.0442 14.6965 16.0436 14.7071 16.0379 14.7153C16.0241 14.7351 16.0254 14.7441 16.0266 14.7481C16.0287 14.7546 16.0349 14.7621 16.0495 14.7743C16.0521 14.7765 16.0549 14.7787 16.0579 14.7811C16.0841 14.8022 16.1245 14.8348 16.1245 14.8924C16.1245 14.9204 16.107 14.9416 16.0903 14.957C16.0763 14.9699 16.0585 14.9824 16.0419 14.9941C16.0384 14.9966 16.0349 14.999 16.0315 15.0015C16.0111 15.016 15.993 15.0299 15.9799 15.045C15.9672 15.0596 15.9609 15.0736 15.9609 15.0887C15.9609 15.1004 15.9533 15.1107 15.9422 15.1141C15.9311 15.1176 15.919 15.1134 15.9124 15.1038C15.8641 15.0336 15.8346 14.9302 15.8429 14.8428C15.8471 14.7988 15.8611 14.7563 15.8899 14.7246ZM15.9287 15.0244C15.9039 14.9695 15.8905 14.9038 15.8958 14.8478C15.8993 14.811 15.9106 14.7809 15.9293 14.7602C15.9402 14.7481 15.9546 14.7383 15.9735 14.7325C15.972 14.7431 15.9727 14.7536 15.9759 14.7639C15.9831 14.787 16.0013 14.8033 16.0154 14.8151C16.0183 14.8175 16.0212 14.8199 16.024 14.8222C16.0519 14.8454 16.0713 14.8615 16.0713 14.8924C16.0713 14.8971 16.0683 14.905 16.0543 14.9179C16.0432 14.9281 16.029 14.9382 16.0124 14.9498C16.0086 14.9525 16.0047 14.9553 16.0007 14.9581C15.9802 14.9727 15.9574 14.9898 15.9398 15.0101C15.9359 15.0146 15.9322 15.0194 15.9287 15.0244Z" fill="#C09300"/>
<path d="M13.959 14.5365C14.0244 14.5365 14.1226 14.5651 14.1512 14.602L13.959 14.5365ZM14.282 14.6347C14.3147 14.6347 14.4456 14.6633 14.5069 14.7001L14.282 14.6347ZM15.4516 14.7656C15.3902 14.7656 15.2594 14.7656 15.2267 14.7942L15.4516 14.7615V14.7656ZM15.0958 14.7656C15.059 14.7288 14.9322 14.7288 14.8668 14.7656H15.0958ZM17.6638 14.5365C17.5945 14.5374 17.5272 14.5603 17.4716 14.602L17.6638 14.5365ZM17.3449 14.6347C17.304 14.6347 17.1813 14.6633 17.1159 14.7001L17.3449 14.6347ZM16.1713 14.7656C16.2326 14.7656 16.3635 14.7656 16.4003 14.7942L16.1713 14.7615V14.7656ZM16.527 14.7656C16.5638 14.7288 16.6906 14.7288 16.756 14.7656H16.527Z" fill="white"/>
<path fill-rule="evenodd" clip-rule="evenodd" d="M17.6823 14.5334C17.6839 14.5423 17.6787 14.551 17.6701 14.5539L17.4779 14.6194C17.4694 14.6223 17.4599 14.6185 17.4557 14.6105C17.4515 14.6025 17.4537 14.5926 17.4609 14.5872C17.5196 14.5432 17.5907 14.519 17.6639 14.5181C17.673 14.518 17.6808 14.5244 17.6823 14.5334ZM13.9412 14.5335C13.9426 14.5246 13.9503 14.5181 13.9593 14.5181C13.9943 14.5181 14.0371 14.5256 14.0749 14.5379C14.0938 14.544 14.112 14.5515 14.1275 14.5601C14.1428 14.5685 14.1567 14.5786 14.166 14.5906C14.171 14.597 14.1712 14.606 14.1665 14.6126C14.1618 14.6192 14.1533 14.622 14.1456 14.6194L13.9534 14.5539C13.9449 14.551 13.9397 14.5424 13.9412 14.5335ZM14.2642 14.6321C14.2654 14.623 14.2732 14.6162 14.2824 14.6162C14.3013 14.6162 14.3443 14.624 14.3888 14.6358C14.4336 14.6476 14.4838 14.6645 14.5167 14.6843C14.5247 14.6891 14.5278 14.699 14.5241 14.7075C14.5204 14.716 14.511 14.7204 14.5021 14.7178L14.2772 14.6523C14.2684 14.6498 14.2629 14.6411 14.2642 14.6321ZM17.2352 14.6358C17.2794 14.624 17.3222 14.6162 17.3452 14.6162C17.3544 14.6162 17.3622 14.623 17.3634 14.6321C17.3647 14.6412 17.3591 14.6498 17.3503 14.6524L17.1213 14.7178C17.1123 14.7204 17.1028 14.7158 17.0992 14.7072C17.0956 14.6986 17.0991 14.6886 17.1072 14.6841C17.1419 14.6645 17.1906 14.6477 17.2352 14.6358ZM15.0586 14.727C15.078 14.732 15.0966 14.74 15.1091 14.7525C15.1144 14.7578 15.116 14.7657 15.1131 14.7726C15.1103 14.7795 15.1036 14.784 15.0961 14.784H14.8671C14.8588 14.784 14.8515 14.7783 14.8493 14.7702C14.8472 14.7621 14.8508 14.7536 14.8581 14.7495C14.8945 14.729 14.946 14.7195 14.9924 14.7195C15.0158 14.7195 15.0387 14.722 15.0586 14.727ZM16.6311 14.7195C16.6775 14.7195 16.729 14.729 16.7654 14.7495C16.7727 14.7536 16.7763 14.7621 16.7742 14.7702C16.772 14.7783 16.7647 14.784 16.7564 14.784H16.5274C16.5199 14.784 16.5132 14.7795 16.5104 14.7726C16.5075 14.7657 16.5091 14.7578 16.5144 14.7525C16.5269 14.74 16.5455 14.732 16.5649 14.727C16.5848 14.722 16.6077 14.7195 16.6311 14.7195ZM15.4639 14.7476C15.468 14.751 15.4703 14.7561 15.4703 14.7615V14.7656C15.4703 14.7757 15.4621 14.784 15.4519 14.784C15.4438 14.784 15.4346 14.784 15.4247 14.784L15.2296 14.8124C15.2216 14.8136 15.2137 14.8093 15.2103 14.8019C15.2069 14.7945 15.2087 14.7857 15.2149 14.7803C15.2268 14.77 15.245 14.7638 15.2633 14.7597C15.2823 14.7554 15.3046 14.7526 15.3272 14.7508C15.3597 14.7482 15.3939 14.7474 15.4219 14.7472L15.4492 14.7433C15.4545 14.7425 15.4599 14.7441 15.4639 14.7476ZM16.1595 14.7476C16.1636 14.7441 16.1689 14.7425 16.1742 14.7433L16.2021 14.7472C16.2301 14.7475 16.2642 14.7482 16.2968 14.7508C16.3197 14.7526 16.3423 14.7554 16.3619 14.7597C16.3808 14.7638 16.3993 14.7699 16.4119 14.7797C16.4185 14.7848 16.4208 14.7937 16.4175 14.8014C16.4143 14.8091 16.4063 14.8136 16.398 14.8124L16.1994 14.784C16.1892 14.784 16.1798 14.784 16.1716 14.784C16.1614 14.784 16.1532 14.7757 16.1532 14.7656V14.7615C16.1532 14.7561 16.1555 14.7511 16.1595 14.7476Z" fill="#C09300"/>
<path d="M13.9016 15.052C13.8812 15.0479 13.8689 15.0274 13.8771 15.011C13.8812 14.9824 13.9016 14.9701 13.918 14.9783C13.9343 14.9783 13.9548 15.0029 13.9548 15.011L13.9384 15.0397L13.9302 15.0438C13.9302 15.052 13.9139 15.052 13.9016 15.052ZM16.1507 15.2115C16.1425 15.2115 16.1262 15.191 16.1262 15.1829C16.1262 15.1665 16.1507 15.142 16.1671 15.142L16.1998 15.1583C16.212 15.1706 16.212 15.1951 16.1957 15.2074C16.1875 15.2156 16.163 15.2156 16.1507 15.2074V15.2115ZM16.163 15.3138C16.1466 15.3056 16.1425 15.2974 16.1384 15.281C16.1384 15.2606 16.1384 15.2565 16.1589 15.2442L16.1752 15.236L16.1916 15.2442C16.2079 15.2524 16.2202 15.2606 16.2202 15.277C16.2202 15.2892 16.2079 15.3015 16.1916 15.3097C16.1793 15.3179 16.1752 15.3179 16.163 15.3097V15.3138Z" fill="#C09300"/>
<path d="M14.0858 14.8638C14.0695 14.8638 14.049 14.8801 14.0367 14.8883C14.0122 14.8924 13.9795 14.9088 13.955 14.8883C13.9304 14.8842 13.8977 14.8883 13.8936 14.921C13.8977 14.9497 13.9345 14.962 13.959 14.9456C13.9754 14.9251 14.0204 14.9088 14.0286 14.9456C14.0081 14.9783 14.0122 15.0151 13.9958 15.0438C13.9958 15.0642 13.9836 15.0806 13.9754 15.097C13.955 15.097 13.9345 15.097 13.9181 15.1092C13.9055 15.1092 13.8929 15.1122 13.8816 15.1179C13.8702 15.1235 13.8603 15.1318 13.8527 15.142C13.8364 15.1665 13.82 15.191 13.8159 15.2238C13.82 15.2483 13.8568 15.2565 13.8813 15.2606L13.9631 15.2851L14.094 15.322C14.1594 15.3424 14.2248 15.3506 14.2903 15.367L14.3107 15.371C14.3393 15.3792 14.3516 15.3506 14.3516 15.3301L14.3925 15.1829C14.4007 15.1624 14.4129 15.1215 14.3761 15.1297C14.3557 15.142 14.3353 15.1624 14.3107 15.1624C14.2739 15.1624 14.2944 15.2033 14.3107 15.2156C14.3107 15.2401 14.3025 15.2688 14.2903 15.2892C14.2657 15.3015 14.2412 15.2892 14.2167 15.281C14.1962 15.281 14.1471 15.2688 14.1676 15.2401L14.188 15.1665C14.2003 15.142 14.2003 15.1133 14.2085 15.0847C14.1921 15.056 14.1676 15.097 14.1471 15.101C14.1308 15.1092 14.0817 15.1133 14.1063 15.142C14.1308 15.1583 14.1144 15.187 14.1063 15.2115C14.1063 15.2401 14.0735 15.2524 14.049 15.2401C14.0245 15.2401 13.9877 15.2197 14.0081 15.1951L14.0286 15.1215L14.0572 15.0397C14.0572 15.011 14.0695 14.9906 14.0817 14.966C14.0817 14.9374 14.1022 14.9129 14.1022 14.8842C14.1022 14.872 14.094 14.8679 14.0858 14.8679V14.8638ZM13.9345 15.1624C13.9364 15.1613 13.9385 15.1608 13.9406 15.1608C13.9428 15.1608 13.9449 15.1613 13.9468 15.1624C13.955 15.1706 13.955 15.1788 13.9468 15.187L13.9345 15.1951C13.9141 15.1951 13.91 15.191 13.91 15.1829C13.91 15.1788 13.91 15.1747 13.9222 15.1706C13.9272 15.167 13.9327 15.1642 13.9386 15.1624H13.9345ZM13.8936 15.367C13.8732 15.3506 13.8773 15.3383 13.9059 15.3138C13.9222 15.3056 13.9263 15.3056 13.9427 15.3179C13.9672 15.3383 13.9672 15.3506 13.9427 15.371C13.9345 15.3792 13.9304 15.3792 13.9222 15.3792C13.91 15.3792 13.9059 15.3792 13.8936 15.371V15.367ZM14.0163 15.4079C14.0072 15.405 13.9995 15.3987 13.9949 15.3903C13.9903 15.3819 13.9892 15.3721 13.9918 15.3629C13.9999 15.3465 14.004 15.3424 14.0286 15.3424C14.0572 15.3424 14.0613 15.3465 14.0654 15.371C14.0654 15.3874 14.0654 15.3915 14.0531 15.3997C14.0485 15.4033 14.0433 15.4059 14.0376 15.4073C14.032 15.4087 14.0261 15.4089 14.0204 15.4079H14.0163ZM17.6639 15.4079C17.6557 15.4038 17.6516 15.3997 17.6516 15.3874C17.6516 15.371 17.6598 15.3588 17.6843 15.3506C17.7089 15.3383 17.7252 15.3383 17.7334 15.3588C17.7457 15.3833 17.7457 15.3915 17.7293 15.4079C17.7212 15.4201 17.7171 15.4201 17.6966 15.4201C17.6762 15.4201 17.6721 15.4201 17.6639 15.412V15.4079ZM14.188 15.457C14.1717 15.457 14.1635 15.4406 14.1635 15.4242C14.1635 15.412 14.1635 15.4079 14.1717 15.3997L14.1962 15.3915L14.2208 15.3956C14.2412 15.412 14.2453 15.4283 14.233 15.4447C14.2208 15.461 14.2085 15.461 14.184 15.457H14.188ZM15.0795 15.4979L15.0713 15.4856C15.0713 15.461 15.0713 15.4406 15.0795 15.416C15.0836 15.3956 15.0795 15.3751 15.0877 15.3547L15.104 15.2401C15.104 15.2197 15.104 15.1992 15.1122 15.1829C15.1163 15.1501 15.1122 15.1215 15.1204 15.0929C15.1204 15.0806 15.1327 15.052 15.1449 15.0683C15.1613 15.0929 15.1817 15.1092 15.2022 15.1297C15.2185 15.142 15.2022 15.1583 15.1899 15.1624C15.1735 15.1665 15.1695 15.187 15.1695 15.2033L15.1613 15.2524C15.1613 15.281 15.1613 15.3056 15.1531 15.3342L15.149 15.4079L15.1408 15.457C15.1408 15.4733 15.1408 15.4938 15.1245 15.502C15.1122 15.5101 15.0918 15.5101 15.0836 15.4979H15.0795ZM16.294 15.097L16.2408 15.146C16.2163 15.1665 16.2613 15.1747 16.2654 15.191C16.2736 15.2156 16.2736 15.2401 16.2736 15.2647C16.2817 15.2892 16.2858 15.3097 16.2817 15.3342C16.2817 15.3629 16.249 15.3547 16.2327 15.371C16.2122 15.3792 16.204 15.3997 16.1918 15.412C16.182 15.4325 16.1765 15.4547 16.1754 15.4774C16.1754 15.4979 16.1631 15.5183 16.1754 15.5347L16.1795 15.5429H16.2L16.2613 15.5388C16.3104 15.5306 16.3635 15.5306 16.4126 15.5265L16.5026 15.5183C16.5271 15.5224 16.5394 15.4979 16.5394 15.4774C16.523 15.4488 16.5353 15.4201 16.523 15.3956C16.5148 15.3629 16.5189 15.3342 16.5148 15.3056C16.5148 15.281 16.4862 15.2729 16.4739 15.2892C16.4576 15.3056 16.433 15.3097 16.4249 15.326C16.4126 15.3506 16.4494 15.3506 16.4576 15.367L16.4617 15.4283C16.4658 15.4529 16.4412 15.4529 16.4208 15.457C16.4003 15.4651 16.3717 15.4692 16.3594 15.4447C16.3513 15.4242 16.3513 15.4038 16.3513 15.3833C16.3513 15.3424 16.339 15.3097 16.339 15.2729C16.339 15.232 16.3267 15.187 16.3267 15.142C16.3267 15.1215 16.3226 15.0929 16.294 15.097ZM16.2695 15.4324H16.2817V15.4651L16.2695 15.4692C16.2641 15.4709 16.2586 15.4723 16.2531 15.4733C16.2504 15.4734 16.2477 15.4734 16.2449 15.4733C16.2368 15.4651 16.2368 15.4529 16.249 15.4406L16.2695 15.4324ZM15.0427 15.056C15.0304 15.056 15.01 15.0847 14.9936 15.0806C14.9568 15.0847 14.9609 15.1215 14.9895 15.1338V15.1665C14.9936 15.1992 14.9732 15.2279 14.9773 15.2606C14.9773 15.2933 14.965 15.3301 14.965 15.367C14.9527 15.4038 14.9527 15.4406 14.9486 15.4774C14.9446 15.5101 14.92 15.4979 14.8996 15.4897V15.4488C14.9037 15.412 14.8791 15.4038 14.8505 15.3997C14.8219 15.3997 14.8096 15.3792 14.8178 15.3547C14.8301 15.3383 14.8587 15.3424 14.8791 15.3424C14.92 15.3506 14.9159 15.2974 14.8955 15.277C14.8791 15.2524 14.8464 15.236 14.8382 15.2115C14.8382 15.1788 14.8178 15.142 14.7892 15.1256C14.7442 15.1215 14.7074 15.1583 14.6951 15.1992C14.6747 15.1992 14.6542 15.2074 14.6379 15.2156C14.6092 15.2238 14.5683 15.2729 14.6092 15.2933C14.6297 15.2974 14.6992 15.3138 14.6665 15.3424C14.6501 15.3751 14.6174 15.3751 14.5888 15.367C14.5602 15.367 14.5274 15.3506 14.5274 15.3179C14.5234 15.2851 14.5234 15.2524 14.5111 15.2238C14.5029 15.191 14.4661 15.1992 14.462 15.232C14.4334 15.2524 14.4375 15.2892 14.4579 15.3138C14.4702 15.3424 14.4579 15.3792 14.4457 15.4038C14.4375 15.4447 14.3966 15.4447 14.368 15.4529C14.3557 15.461 14.3025 15.4529 14.323 15.4815C14.3536 15.4956 14.3879 15.4999 14.4211 15.4938C14.4538 15.4938 14.4825 15.4651 14.5029 15.4365C14.5234 15.416 14.5602 15.4283 14.5929 15.4283C14.6215 15.4283 14.6542 15.4488 14.6869 15.4324C14.6951 15.412 14.736 15.371 14.7483 15.412C14.7483 15.4488 14.7769 15.4651 14.8096 15.461C14.8464 15.461 14.8301 15.4856 14.8301 15.5101C14.8301 15.547 14.8587 15.5674 14.8914 15.5838H14.9241C14.9527 15.5715 14.9854 15.5592 14.9977 15.5265C15.01 15.4979 15.01 15.4651 15.0182 15.4365C15.0263 15.3915 15.0345 15.3424 15.0345 15.2974C15.0468 15.2565 15.0427 15.2115 15.0509 15.1665L15.0631 15.0724C15.0631 15.052 15.055 15.052 15.0427 15.056ZM14.7687 15.2238C14.7728 15.2238 14.7769 15.232 14.7769 15.2442C14.7769 15.2606 14.7851 15.2729 14.7973 15.277V15.2892L14.7646 15.2974C14.7442 15.2974 14.7278 15.2892 14.7156 15.277L14.7074 15.2688L14.7196 15.2606L14.7401 15.2401C14.7524 15.2279 14.7605 15.2238 14.7687 15.2238ZM17.4676 14.9006C17.4441 14.9023 17.4208 14.9064 17.3981 14.9129C17.3572 14.9129 17.3368 14.9538 17.3777 14.9783C17.4022 15.0397 17.439 14.962 17.4799 14.9701C17.5371 14.9783 17.5412 15.0438 17.5535 15.0929C17.5535 15.1379 17.5698 15.1829 17.5821 15.2279C17.623 15.2729 17.5535 15.3015 17.5249 15.2688C17.5003 15.2401 17.4431 15.2074 17.4145 15.2442C17.3777 15.2606 17.3736 15.3097 17.3449 15.326C17.2959 15.3383 17.2918 15.277 17.2632 15.2524C17.2386 15.2156 17.1936 15.2115 17.1568 15.2033C17.1405 15.1665 17.1487 15.1051 17.1159 15.0806C17.0832 15.0929 17.026 15.1501 17.075 15.1788C17.1159 15.2197 17.0546 15.236 17.0342 15.2606C17.0014 15.2974 16.9933 15.3424 16.9933 15.3833C16.9401 15.412 16.9319 15.3506 16.9237 15.3138C16.9237 15.2688 16.8829 15.281 16.8542 15.2974C16.8133 15.3138 16.797 15.3506 16.7724 15.3792V15.461C16.7806 15.4979 16.8215 15.4815 16.8461 15.4774C16.8869 15.461 16.9033 15.506 16.8706 15.5306C16.8461 15.5551 16.7806 15.5429 16.7888 15.5879H16.8542C16.8951 15.5756 16.9442 15.5429 16.9483 15.4938C16.9565 15.4529 17.0178 15.457 17.0505 15.4488C17.0914 15.4365 17.1446 15.4324 17.1568 15.4897C17.1855 15.5183 17.2468 15.551 17.2795 15.5101C17.2951 15.5003 17.3076 15.4862 17.3155 15.4696C17.3235 15.4529 17.3266 15.4344 17.3245 15.416C17.3204 15.3833 17.3777 15.3833 17.394 15.4038C17.4145 15.4365 17.4799 15.4283 17.5126 15.4038C17.5453 15.3833 17.5535 15.3383 17.6026 15.3383L17.8234 15.277C17.8806 15.2647 17.8152 15.2279 17.7988 15.2033C17.758 15.1829 17.7171 15.2729 17.668 15.2279C17.6271 15.1992 17.6312 15.146 17.6189 15.101C17.6067 15.0438 17.6107 14.9783 17.5698 14.9374C17.5453 14.9088 17.5044 14.9006 17.4676 14.9006ZM17.1895 15.2892C17.1936 15.2892 17.2018 15.2892 17.21 15.2974C17.2264 15.3056 17.2386 15.322 17.2386 15.3383C17.2386 15.3465 17.2386 15.3465 17.2264 15.3506L17.2059 15.3588C17.1977 15.3588 17.1773 15.3465 17.1773 15.3383V15.322C17.1691 15.3056 17.1691 15.3056 17.1773 15.2974L17.1895 15.2892ZM17.4554 15.3056C17.4717 15.3056 17.4799 15.3056 17.4881 15.3179C17.4922 15.3342 17.4881 15.3424 17.4717 15.3506L17.4513 15.3588L17.4349 15.3465C17.4267 15.3424 17.4226 15.3383 17.4226 15.3301C17.4226 15.3179 17.439 15.3056 17.4554 15.3015V15.3056ZM17.0873 15.3056C17.0955 15.3056 17.0996 15.3056 17.1037 15.3138C17.1119 15.322 17.1159 15.326 17.1159 15.3383V15.3629C17.1159 15.3751 17.1159 15.371 17.0914 15.371C17.0669 15.371 17.0628 15.371 17.0628 15.3465C17.0628 15.3301 17.0628 15.326 17.075 15.3179C17.0791 15.3097 17.0873 15.3097 17.0914 15.3097L17.0873 15.3056ZM16.8665 15.367C16.8704 15.3681 16.8739 15.3702 16.8767 15.3731C16.8796 15.3759 16.8817 15.3795 16.8829 15.3833C16.8829 15.3956 16.8829 15.4038 16.8747 15.4079C16.8624 15.412 16.842 15.416 16.8338 15.4079C16.8337 15.4065 16.8337 15.4051 16.8338 15.4038C16.8256 15.3997 16.8256 15.3956 16.8338 15.3915V15.3874L16.842 15.3751C16.8445 15.3711 16.8483 15.3682 16.8528 15.3667C16.8572 15.3652 16.8621 15.3653 16.8665 15.367ZM17.2427 15.416L17.2632 15.4201V15.4447H17.2141L17.21 15.4365C17.21 15.4283 17.21 15.4242 17.2182 15.4201L17.2427 15.416ZM16.5434 15.6124C16.5394 15.6124 16.5312 15.6083 16.5394 15.6042C16.5434 15.592 16.5598 15.5879 16.5721 15.5797C16.5943 15.5712 16.6141 15.5571 16.6293 15.5388C16.6293 15.5224 16.6457 15.5142 16.6457 15.4979L16.6416 15.4406C16.6361 15.4234 16.6244 15.4088 16.6089 15.3997C16.5966 15.3956 16.5803 15.3915 16.5762 15.3751C16.5762 15.3629 16.5884 15.3506 16.5925 15.3383L16.6171 15.2892C16.6293 15.277 16.6457 15.2892 16.6498 15.2974L16.6702 15.3383C16.6825 15.3506 16.6907 15.3629 16.6947 15.3792C16.7029 15.3956 16.7111 15.4079 16.7111 15.4201L16.7193 15.4733C16.7193 15.4938 16.7193 15.5183 16.7111 15.5388L16.6866 15.5715C16.6743 15.5838 16.662 15.596 16.6457 15.6001C16.6334 15.6042 16.6252 15.6165 16.6089 15.6165H16.5475L16.5434 15.6124ZM16.2613 15.6288C16.2531 15.6206 16.249 15.6165 16.249 15.6042C16.249 15.592 16.249 15.592 16.2613 15.5797C16.2776 15.5633 16.2858 15.5633 16.3185 15.5797C16.3472 15.596 16.3594 15.596 16.3594 15.5838C16.3635 15.5756 16.3799 15.5633 16.4003 15.5633C16.4079 15.5636 16.4151 15.5665 16.4208 15.5715C16.4289 15.5797 16.433 15.5838 16.433 15.6001C16.433 15.6206 16.433 15.6206 16.4208 15.6329C16.4085 15.641 16.4085 15.641 16.3921 15.641C16.3849 15.6406 16.3779 15.6381 16.3721 15.6337C16.3662 15.6294 16.3618 15.6234 16.3594 15.6165C16.3594 15.6083 16.3594 15.6042 16.3513 15.6124L16.3431 15.6165C16.3349 15.6165 16.3185 15.6288 16.3104 15.637L16.2899 15.641C16.2736 15.641 16.2736 15.641 16.2613 15.6288ZM15.4516 15.2647C15.423 15.2647 15.3944 15.2892 15.3903 15.3179C15.3985 15.3465 15.423 15.3792 15.4066 15.4079C15.4189 15.4488 15.3739 15.4651 15.3453 15.4447C15.3289 15.4038 15.3208 15.3629 15.2921 15.322C15.2594 15.3138 15.2472 15.367 15.2226 15.3874C15.2349 15.416 15.2676 15.4447 15.2717 15.4815C15.2799 15.5224 15.2553 15.5633 15.2267 15.5797C15.1981 15.6083 15.1572 15.6001 15.1245 15.6042C15.0836 15.6288 15.1531 15.637 15.1735 15.637C15.2144 15.641 15.2594 15.637 15.2962 15.6042C15.3249 15.592 15.3208 15.5347 15.3576 15.5306L15.5538 15.5429C15.5866 15.551 15.6397 15.5388 15.6643 15.5633C15.6643 15.6042 15.7052 15.637 15.742 15.6533C15.7624 15.6615 15.7828 15.6329 15.8033 15.6288C15.8442 15.6165 15.8319 15.5674 15.8565 15.547H16.0609C16.0691 15.547 16.0732 15.5265 16.0855 15.5183L16.0773 15.4406C16.065 15.4079 16.0773 15.367 16.0568 15.3383C16.02 15.3301 15.9914 15.3588 15.9587 15.3629C15.9178 15.3792 15.8892 15.416 15.8851 15.457C15.8646 15.4938 15.8278 15.4488 15.8442 15.416L15.8401 15.3751C15.8197 15.3547 15.7828 15.3629 15.7542 15.3588L15.6315 15.3506C15.5907 15.3506 15.5538 15.3547 15.5211 15.3465C15.4802 15.3465 15.4802 15.3056 15.4802 15.2729C15.4721 15.2666 15.4618 15.2637 15.4516 15.2647ZM15.5334 15.416L15.5743 15.4201H15.6275C15.6683 15.4283 15.7092 15.4283 15.7501 15.4283C15.7583 15.4283 15.7665 15.4365 15.7747 15.4447V15.5265C15.7747 15.5388 15.7747 15.5551 15.7665 15.5592C15.7643 15.5625 15.7616 15.5653 15.7583 15.5674C15.7523 15.5663 15.7466 15.564 15.7417 15.5604C15.7367 15.5569 15.7326 15.5523 15.7297 15.547V15.4897C15.7216 15.4828 15.7116 15.4785 15.7011 15.4774L15.5947 15.4733L15.513 15.4692C15.5007 15.4651 15.4843 15.4692 15.4762 15.4529C15.468 15.4447 15.4802 15.4283 15.4925 15.4242C15.5054 15.4185 15.5193 15.4157 15.5334 15.416ZM15.9955 15.4283C15.9996 15.4283 16.0037 15.4283 16.0037 15.4406L16.0118 15.461C16.0118 15.4651 16.0118 15.4692 16.0037 15.4692C15.9832 15.4774 15.9628 15.4774 15.9546 15.4692C15.9546 15.4651 15.9546 15.4488 15.9628 15.4447L15.9955 15.4283Z" fill="#C09300"/>
<path d="M15.8116 13.1127C17.1447 12.09 17.0302 10.5845 17.0302 10.5845L16.928 10.5927C16.6458 10.5927 15.9793 10.4291 15.8239 10.2286C15.6603 10.4127 14.9733 10.5968 14.6953 10.5968L14.593 10.5845C14.593 10.5845 14.4744 12.0859 15.8116 13.1127Z" fill="white"/>
<path fill-rule="evenodd" clip-rule="evenodd" d="M15.8251 10.1935L15.8417 10.2149C15.8773 10.2608 15.9443 10.3068 16.0322 10.3499C16.1195 10.3927 16.225 10.4316 16.3349 10.4643C16.5546 10.5298 16.7889 10.5701 16.9271 10.5703L17.051 10.5604L17.0527 10.5829L17.0302 10.5846C17.0527 10.5829 17.0527 10.5829 17.0527 10.5829L17.0527 10.5832L17.0528 10.5841L17.053 10.5876C17.0532 10.5906 17.0534 10.595 17.0537 10.6007C17.0542 10.6122 17.0548 10.6292 17.0551 10.651C17.0556 10.6947 17.0548 10.7581 17.0498 10.8372C17.0396 10.9956 17.012 11.2173 16.9426 11.4711C16.8036 11.9789 16.4967 12.6156 15.8253 13.1306L15.8116 13.1411L15.798 13.1306C15.1246 12.6136 14.8177 11.9768 14.6792 11.4695C14.61 11.216 14.5828 10.9946 14.573 10.8366C14.568 10.7576 14.5674 10.6944 14.5681 10.6508C14.5684 10.629 14.569 10.6121 14.5696 10.6006C14.5699 10.5949 14.5701 10.5905 14.5703 10.5875L14.5705 10.5841L14.5706 10.5832L14.5706 10.5829L14.5706 10.5828C14.5706 10.5828 14.5706 10.5828 14.5931 10.5846L14.5706 10.5828L14.5725 10.5595L14.6966 10.5744C14.8326 10.5741 15.0706 10.5288 15.296 10.4603C15.4088 10.426 15.5176 10.3861 15.6081 10.3435C15.6993 10.3006 15.7694 10.2562 15.8071 10.2137L15.8251 10.1935ZM14.6142 10.6098C14.6138 10.6203 14.6133 10.6343 14.6131 10.6514C14.6124 10.694 14.613 10.756 14.6179 10.8338C14.6276 10.9894 14.6543 11.2076 14.7226 11.4577C14.8582 11.9543 15.1573 12.5765 15.8117 13.0844C16.4639 12.5785 16.7631 11.9564 16.8992 11.4592C16.9677 11.2088 16.9948 10.9902 17.0049 10.8343C17.0099 10.7564 17.0106 10.6942 17.0101 10.6515C17.0099 10.6338 17.0094 10.6195 17.009 10.6089L16.9289 10.6153H16.928C16.7839 10.6153 16.5445 10.5738 16.322 10.5075C16.2106 10.4742 16.1026 10.4346 16.0124 10.3903C15.9337 10.3517 15.8665 10.3087 15.8228 10.262C15.7773 10.305 15.7081 10.3462 15.6272 10.3842C15.5342 10.428 15.4232 10.4686 15.3091 10.5033C15.0813 10.5726 14.8376 10.6194 14.6953 10.6194H14.6939L14.6142 10.6098Z" fill="#C09300"/>
<path d="M16.9238 10.691H16.8911C16.6375 10.691 16.0487 10.5642 15.8197 10.3678C15.5825 10.5478 14.9814 10.6951 14.7319 10.6951C14.7209 10.6946 14.71 10.6933 14.6992 10.691C14.7015 10.9495 14.7372 11.2066 14.8055 11.456C14.9696 12.0567 15.3222 12.5888 15.8115 12.9737C16.3011 12.5873 16.6537 12.0538 16.8175 11.4519C16.8854 11.2039 16.9212 10.9481 16.9238 10.691Z" fill="white"/>
<path fill-rule="evenodd" clip-rule="evenodd" d="M15.8204 10.3441L15.8317 10.3538C15.9429 10.4491 16.1439 10.5291 16.351 10.5852C16.5576 10.6412 16.7665 10.6725 16.8911 10.6725H16.9238V10.6909L16.9422 10.6911C16.9396 10.9499 16.9037 11.2072 16.8352 11.4567C16.6704 12.0625 16.3156 12.5993 15.8229 12.9881L15.8116 12.9971L15.8002 12.9881C15.3078 12.6007 14.9529 12.0653 14.7878 11.4608C14.7191 11.2099 14.6831 10.9512 14.6809 10.6911L14.6807 10.6681L14.7031 10.6729C14.7127 10.675 14.7225 10.6762 14.7323 10.6766C14.8547 10.6766 15.0652 10.6402 15.2755 10.5812C15.4862 10.522 15.6929 10.4409 15.8086 10.3531L15.8204 10.3441ZM16.9052 10.7093H16.8911C16.7622 10.7093 16.5498 10.6773 16.3414 10.6208C16.14 10.5662 15.9385 10.4878 15.819 10.3911C15.6959 10.4798 15.4902 10.5591 15.2854 10.6166C15.0737 10.6761 14.8592 10.7134 14.732 10.7134H14.7313L14.7313 10.7134C14.7268 10.7133 14.7224 10.7129 14.7179 10.7125C14.7219 10.9621 14.7573 11.2103 14.8233 11.4511L14.8233 11.4511C14.985 12.0433 15.3313 12.5684 15.8115 12.9502C16.2921 12.567 16.6383 12.0405 16.7997 11.447L16.7997 11.447C16.8657 11.2065 16.9011 10.9587 16.9052 10.7093Z" fill="#C09300"/>
<path d="M15.378 10.5682C15.1584 10.6397 14.93 10.681 14.6992 10.6909L14.7033 10.8586C14.7173 11.0593 14.7515 11.258 14.8055 11.4518C14.9155 11.8542 15.1107 12.2281 15.378 12.5482V10.5682ZM16.2204 10.5682V12.5809C16.5006 12.2534 16.7045 11.8678 16.8175 11.4518C16.8714 11.258 16.9057 11.0593 16.9197 10.8586L16.9238 10.695H16.8911C16.7357 10.695 16.4658 10.6459 16.2204 10.5641V10.5682Z" fill="#C09300"/>
<path d="M16.3148 10.0773C16.3434 10.0814 16.278 9.93413 16.278 9.93413C16.3516 10.0078 16.6215 10.0282 16.6215 10.0282C16.4579 9.95458 16.2943 9.41049 16.3148 8.97276C16.3311 8.53913 16.2534 8.36731 16.1921 8.30185C16.1103 8.22004 15.8445 8.1464 15.6728 8.13822C15.5705 8.13413 15.591 8.21185 15.591 8.21185C15.407 8.16685 15.223 8.1464 15.1412 8.20367C15.0676 8.25276 15.0512 8.51049 15.1085 8.46549C15.2434 8.35504 15.362 8.45731 15.4438 8.57594C15.5174 8.67822 15.5133 8.97276 15.407 9.32049C15.3128 9.58337 15.1745 9.82824 14.998 10.0446C15.1616 10.0446 15.3906 9.9014 15.3906 9.9014L15.3375 10.1264C15.5092 10.0446 15.6441 9.91776 15.6441 9.91776L15.8077 10.0896C15.8609 10.0159 15.9713 9.91776 15.9713 9.91776C15.9713 9.91776 16.1062 10.0609 16.3148 10.0814V10.0773Z" fill="white"/>
<path fill-rule="evenodd" clip-rule="evenodd" d="M15.6052 8.12639C15.6226 8.11699 15.6452 8.11256 15.6737 8.1137L15.6739 8.11371C15.7622 8.11791 15.8736 8.13882 15.9732 8.16893C16.0231 8.18402 16.0706 8.20156 16.1111 8.22075C16.1511 8.23976 16.186 8.26113 16.2094 8.28451L16.2097 8.28479L16.2099 8.28508C16.2783 8.35804 16.3557 8.53855 16.3392 8.9737L16.3392 8.97392C16.3292 9.18968 16.3645 9.4324 16.4226 9.63011C16.4517 9.72894 16.4862 9.81571 16.523 9.88185C16.5605 9.94912 16.5982 9.99085 16.6315 10.0058L16.6196 10.0527L16.6214 10.0282C16.6196 10.0527 16.6196 10.0527 16.6196 10.0527L16.6195 10.0527L16.6193 10.0527L16.6187 10.0526L16.6163 10.0524C16.6142 10.0523 16.6112 10.052 16.6074 10.0516C16.5997 10.0509 16.5887 10.0498 16.5753 10.0483C16.5484 10.0452 16.5118 10.0402 16.4728 10.0329C16.4338 10.0257 16.3919 10.0159 16.3547 10.0031C16.3456 10 16.3367 9.99666 16.328 9.99304C16.3288 9.99506 16.3295 9.99708 16.3302 9.99911C16.3366 10.0174 16.3428 10.0372 16.3453 10.0528C16.3464 10.0599 16.3474 10.0697 16.3451 10.0786C16.3442 10.0819 16.3426 10.0864 16.3393 10.0906V10.1085L16.3123 10.1058C16.2031 10.0951 16.1135 10.0523 16.0515 10.0126C16.0205 9.99268 15.9962 9.97341 15.9795 9.95904C15.9763 9.95629 15.9734 9.95371 15.9708 9.95135C15.9705 9.95165 15.9701 9.95196 15.9698 9.95228C15.9588 9.9625 15.9435 9.9769 15.9266 9.99355C15.8925 10.0272 15.8528 10.0689 15.8275 10.104L15.8103 10.1279L15.6427 9.95193C15.6407 9.95367 15.6386 9.95552 15.6363 9.95749C15.6206 9.97093 15.598 9.98965 15.57 10.011C15.514 10.0535 15.4358 10.1067 15.3479 10.1486L15.3017 10.1706L15.3536 9.95106C15.3303 9.96384 15.3 9.97956 15.2659 9.99529C15.1877 10.0313 15.0854 10.0691 14.998 10.0691H14.9463L14.979 10.0291C15.1536 9.81505 15.2904 9.57281 15.3836 9.31277C15.4362 9.14075 15.4633 8.98249 15.4683 8.85522C15.4708 8.7915 15.4677 8.73604 15.4598 8.69077C15.4518 8.64514 15.4392 8.61164 15.4238 8.5903L15.4235 8.58989C15.3833 8.53164 15.3363 8.48082 15.2856 8.45704C15.2607 8.44539 15.2354 8.44043 15.2094 8.44382C15.1834 8.44721 15.1548 8.45922 15.1239 8.4845L15.1236 8.4848C15.1125 8.49352 15.0953 8.50042 15.078 8.49041C15.0645 8.48255 15.0585 8.46783 15.0554 8.45729C15.0488 8.43425 15.0481 8.40106 15.0513 8.36757C15.0545 8.33343 15.062 8.29593 15.0738 8.26327C15.0852 8.23183 15.1022 8.20027 15.1273 8.18342C15.1752 8.14994 15.2488 8.14129 15.3288 8.1449C15.4013 8.14817 15.4835 8.1618 15.5661 8.18074C15.567 8.17549 15.5685 8.16992 15.5707 8.16429C15.5765 8.15 15.5873 8.13604 15.6052 8.12639ZM15.3776 9.88059L15.4282 9.84895L15.3734 10.0805C15.4384 10.0453 15.4962 10.0054 15.5403 9.97186C15.5675 9.95123 15.5893 9.93314 15.6043 9.92024C15.6118 9.91379 15.6176 9.90865 15.6215 9.90514C15.6235 9.90339 15.6249 9.90205 15.6259 9.90116L15.627 9.90017L15.6273 9.89989M15.3776 9.88059L15.3774 9.88067L15.377 9.88094L15.3752 9.88207C15.3735 9.88307 15.3711 9.88456 15.3679 9.88646C15.3614 9.89028 15.352 9.89576 15.3403 9.90235C15.3166 9.91555 15.2835 9.93314 15.2453 9.9507C15.1858 9.97811 15.1164 10.0044 15.0529 10.0151C15.2141 9.80785 15.3414 9.57621 15.43 9.32878L15.4302 9.32823L15.4304 9.32768C15.484 9.15218 15.5121 8.98951 15.5173 8.85715C15.5199 8.79098 15.5168 8.73189 15.5081 8.6823C15.4995 8.63319 15.4851 8.5916 15.4638 8.56182C15.4222 8.50151 15.3691 8.44196 15.3064 8.41259C15.2745 8.39766 15.2398 8.39034 15.203 8.39514C15.1692 8.39955 15.1353 8.414 15.1016 8.43964C15.0983 8.42488 15.0974 8.40085 15.1001 8.37218C15.103 8.34138 15.1098 8.30805 15.12 8.27999C15.1305 8.2508 15.1431 8.23184 15.1547 8.2241L15.1552 8.22379C15.189 8.20012 15.2482 8.1904 15.3266 8.19394C15.4036 8.19742 15.4939 8.2134 15.5851 8.23571L15.6251 8.2455L15.6147 8.20581C15.6147 8.20578 15.6147 8.20576 15.6147 8.20572C15.6146 8.20551 15.6145 8.20506 15.6144 8.20442C15.6142 8.20312 15.6139 8.20113 15.6138 8.1987C15.6136 8.19363 15.6141 8.18786 15.6162 8.18273C15.6181 8.17811 15.6214 8.17339 15.6284 8.16962C15.6359 8.16561 15.649 8.16186 15.6716 8.16275C15.7551 8.16674 15.8624 8.18673 15.959 8.21593C16.0073 8.23051 16.0523 8.24723 16.09 8.26511C16.1279 8.28308 16.1569 8.30149 16.1744 8.31894C16.2287 8.37714 16.3065 8.54041 16.2902 8.97173C16.2799 9.19367 16.3161 9.44182 16.3755 9.64396C16.4052 9.74507 16.441 9.83549 16.4802 9.90576C16.499 9.93957 16.5192 9.96974 16.5406 9.99429" fill="#C09300"/>
<path fill-rule="evenodd" clip-rule="evenodd" d="M15.7731 9.01624L15.7996 9.01782C15.8262 9.01941 15.8262 9.01941 15.8262 9.01942L15.8261 9.02144L15.8257 9.02727C15.8254 9.03237 15.8249 9.03986 15.8242 9.04946C15.8228 9.06867 15.8208 9.09632 15.818 9.13017C15.8123 9.19784 15.8036 9.29039 15.7913 9.38979C15.779 9.48912 15.763 9.59566 15.7428 9.69121C15.7228 9.78612 15.6982 9.87256 15.6678 9.93024L15.6208 9.9054C15.6475 9.85467 15.671 9.77441 15.6908 9.68024C15.7106 9.58671 15.7263 9.4818 15.7385 9.38324C15.7507 9.28474 15.7594 9.19294 15.765 9.12575C15.7678 9.09216 15.7698 9.06474 15.7712 9.04574C15.7718 9.03623 15.7723 9.02884 15.7726 9.02383L15.773 9.01813L15.7731 9.01624ZM15.6261 9.03474L15.6524 9.03828C15.6788 9.04181 15.6788 9.04182 15.6788 9.04182L15.6787 9.04234L15.6785 9.04383L15.6777 9.04958C15.677 9.0546 15.6759 9.06197 15.6745 9.0714C15.6717 9.09026 15.6675 9.11737 15.6619 9.15047C15.6507 9.21666 15.634 9.30694 15.6119 9.40321C15.5898 9.4994 15.5621 9.60207 15.529 9.69286C15.4962 9.78289 15.457 9.86423 15.4104 9.9153L15.3711 9.87944C15.4104 9.83641 15.4468 9.76332 15.4791 9.67463C15.5112 9.5867 15.5382 9.48636 15.5601 9.39129C15.5819 9.29632 15.5984 9.20711 15.6095 9.14162C15.615 9.10888 15.6192 9.08211 15.6219 9.06354C15.6233 9.05426 15.6244 9.04703 15.6251 9.04213L15.6258 9.03658L15.626 9.03518L15.6261 9.03474ZM15.8998 9.04647C15.8998 9.04646 15.8998 9.04646 15.9264 9.04646C15.953 9.04646 15.953 9.04646 15.953 9.04646L15.953 9.0548C15.953 9.06027 15.953 9.06831 15.9531 9.07859C15.9532 9.09916 15.9533 9.1287 15.9536 9.16454C15.9543 9.23623 15.9555 9.33311 15.9581 9.43391C15.9606 9.53476 15.9645 9.63931 15.9702 9.72643C15.973 9.77 15.9764 9.80896 15.9802 9.84079C15.9841 9.87315 15.9883 9.89644 15.9926 9.90966L15.942 9.92598C15.936 9.9075 15.9313 9.87978 15.9274 9.84715C15.9234 9.81399 15.92 9.77397 15.9171 9.72991C15.9114 9.64176 15.9075 9.53639 15.905 9.43526C15.9024 9.33407 15.9011 9.23688 15.9005 9.16501C15.9002 9.12907 15.9 9.09944 15.8999 9.0788C15.8999 9.06848 15.8999 9.0604 15.8998 9.0549L15.8998 9.04647ZM16.0634 9.08468C16.0634 9.08467 16.0634 9.08466 16.09 9.08328L16.1165 9.08189L16.1165 9.08229L16.1166 9.08359L16.1169 9.08877C16.1172 9.09334 16.1176 9.1001 16.1182 9.1088C16.1194 9.1262 16.1213 9.15135 16.124 9.18225C16.1295 9.24408 16.1384 9.32879 16.1521 9.42042C16.1658 9.51213 16.1842 9.61032 16.2088 9.69923C16.2334 9.78865 16.2637 9.86652 16.3 9.91907L16.2562 9.9493C16.2148 9.88935 16.1827 9.80461 16.1575 9.71338C16.1322 9.62166 16.1134 9.52119 16.0995 9.42829C16.0856 9.33532 16.0766 9.24949 16.071 9.18693C16.0683 9.15564 16.0664 9.13013 16.0652 9.11242C16.0646 9.10357 16.0641 9.09666 16.0639 9.09195L16.0635 9.08656L16.0635 9.08517L16.0634 9.08468Z" fill="#C09300"/>
<path d="M15.4846 8.71091C15.481 8.66347 15.467 8.6174 15.4437 8.57591C15.3619 8.45318 15.2433 8.355 15.1084 8.46545C15.1084 8.46545 15.1534 8.32227 15.2556 8.31818C15.3292 8.31409 15.5051 8.37545 15.6604 8.63727C15.6604 8.63727 15.5459 8.61273 15.5173 8.63727C15.4683 8.67818 15.4887 8.71091 15.4887 8.71091H15.4846Z" fill="#C09300"/>
<path fill-rule="evenodd" clip-rule="evenodd" d="M15.6479 8.62867C15.495 8.378 15.3252 8.32048 15.2558 8.32434L15.2557 8.32435C15.2076 8.32627 15.1723 8.36097 15.1486 8.39677C15.1368 8.41454 15.1282 8.43222 15.1225 8.44548C15.1221 8.44623 15.1218 8.44697 15.1215 8.44769C15.15 8.42779 15.1779 8.41664 15.2052 8.41281C15.2379 8.40821 15.2691 8.41424 15.2984 8.42769C15.3566 8.45449 15.4075 8.51086 15.4486 8.57254L15.4489 8.57293C15.4655 8.60249 15.4774 8.63435 15.4844 8.66736C15.4895 8.65666 15.4985 8.64488 15.5132 8.63262C15.5219 8.62513 15.5362 8.62199 15.5511 8.62083C15.5663 8.61964 15.5837 8.62044 15.6 8.62199C15.6163 8.62354 15.6317 8.62587 15.6429 8.6278C15.6447 8.62811 15.6464 8.6284 15.6479 8.62867ZM15.4937 8.7077L15.4937 8.7076C15.4936 8.70745 15.4934 8.70719 15.4933 8.70682C15.4929 8.70608 15.4924 8.70491 15.4919 8.70337C15.491 8.70028 15.4901 8.69569 15.4905 8.68993C15.4914 8.67861 15.4975 8.66164 15.5211 8.64202L15.5211 8.64196C15.5267 8.6372 15.5374 8.63421 15.552 8.63307C15.5663 8.63196 15.5829 8.63269 15.5988 8.63421C15.6147 8.63572 15.6298 8.638 15.6409 8.6399C15.6464 8.64085 15.6509 8.6417 15.6541 8.64232C15.6557 8.64263 15.6569 8.64288 15.6577 8.64305L15.6587 8.64324L15.6589 8.64329L15.6589 8.6433L15.6727 8.64625L15.6655 8.63417C15.5095 8.37124 15.3318 8.30785 15.2551 8.31208C15.201 8.31427 15.1627 8.3532 15.1384 8.39C15.1261 8.40854 15.1171 8.42691 15.1112 8.44062C15.1082 8.44749 15.106 8.45321 15.1046 8.45722C15.1038 8.45923 15.1033 8.46082 15.1029 8.46191L15.1025 8.46318L15.1024 8.46351L15.1024 8.46361C15.1024 8.46361 15.1023 8.46365 15.1082 8.46549L15.1024 8.46361L15.0962 8.48324L15.1121 8.47024C15.1451 8.44319 15.1768 8.42919 15.2069 8.42497C15.2369 8.42074 15.2658 8.42622 15.2932 8.43885C15.3484 8.46418 15.3976 8.51818 15.4383 8.57915C15.4611 8.61981 15.4747 8.66494 15.4783 8.71141L15.4787 8.71708H15.4996L15.4937 8.7077C15.4937 8.7077 15.4937 8.7077 15.4937 8.7077Z" fill="#C09300"/>
<path d="M15.0918 8.28958C15.1041 8.24867 15.1204 8.21594 15.145 8.20367C15.2267 8.1464 15.4067 8.16276 15.5907 8.21185C15.5907 8.21185 15.5743 8.13413 15.6725 8.13822C15.8442 8.1464 16.1059 8.22004 16.1877 8.30185C16.2139 8.33062 16.2347 8.36388 16.2491 8.40004C16.2082 8.34276 16.0937 8.34685 16.065 8.35094C16.0241 8.35504 15.9955 8.35094 15.9383 8.36731C15.9096 8.37549 15.8688 8.38367 15.8442 8.40004C15.8279 8.4164 15.8115 8.46549 15.787 8.46549C15.7461 8.46549 15.7461 8.45731 15.7338 8.44504C15.7215 8.42458 15.7134 8.40004 15.697 8.40413C15.6561 8.40822 15.5825 8.37549 15.4925 8.30185C15.3985 8.22822 15.3617 8.21185 15.2472 8.22004C15.1245 8.22822 15.0918 8.29776 15.0918 8.29776V8.28958Z" fill="#C09300"/>
<path fill-rule="evenodd" clip-rule="evenodd" d="M15.597 8.21062L15.5969 8.21052L15.5968 8.20999C15.5968 8.20951 15.5967 8.20877 15.5965 8.20782C15.5963 8.2059 15.5961 8.20313 15.5961 8.19981C15.5961 8.19311 15.597 8.18442 15.6007 8.17597C15.6043 8.16762 15.6106 8.1594 15.6215 8.15341C15.6325 8.14738 15.6487 8.14339 15.6725 8.14438C15.7577 8.14844 15.8656 8.16878 15.9623 8.19832C16.0107 8.21309 16.0561 8.23012 16.0945 8.24849C16.1329 8.26687 16.1638 8.28642 16.1836 8.30613C16.2021 8.32649 16.2178 8.34915 16.2305 8.37351C16.2084 8.35839 16.1802 8.35045 16.1536 8.34644C16.1158 8.34074 16.0795 8.34277 16.0646 8.34488C16.0646 8.34488 16.0647 8.34488 16.0647 8.34487L16.0653 8.35098L16.0644 8.3449C16.0645 8.3449 16.0645 8.34489 16.0646 8.34488M15.739 8.44128C15.7366 8.4373 15.7344 8.43318 15.7322 8.42903C15.7317 8.42821 15.7313 8.42739 15.7309 8.42657C15.7281 8.42147 15.7253 8.41633 15.7223 8.41193C15.7193 8.40758 15.7158 8.40345 15.7115 8.40075C15.707 8.39798 15.7019 8.39681 15.6963 8.39809C15.6775 8.39984 15.6503 8.39324 15.6161 8.37665C15.5819 8.36004 15.5414 8.33374 15.4967 8.29714L15.4967 8.29714L15.4966 8.29705C15.4496 8.26024 15.4162 8.23714 15.3798 8.2245C15.3434 8.21182 15.3046 8.20984 15.247 8.21395C15.1845 8.21812 15.1445 8.23798 15.12 8.25717C15.114 8.26185 15.109 8.26647 15.1048 8.2708C15.1091 8.25892 15.114 8.24821 15.1193 8.23902C15.1277 8.22476 15.1372 8.2146 15.148 8.20919L15.1484 8.20899L15.1487 8.20873C15.1879 8.1813 15.2516 8.17098 15.3295 8.17404C15.4071 8.17709 15.4976 8.19334 15.5894 8.21782L15.599 8.22039L15.597 8.21064L15.597 8.21063L15.597 8.21063M15.0982 8.29052C15.1003 8.28366 15.1025 8.27707 15.1048 8.2708C15.1004 8.27533 15.0969 8.27953 15.0942 8.28312C15.0925 8.28534 15.0912 8.28732 15.0901 8.28902L15.0862 8.28785C15.0924 8.26716 15.0997 8.24824 15.1088 8.23282C15.1177 8.21758 15.1285 8.20533 15.1421 8.19842C15.142 8.19851 15.1418 8.19859 15.1417 8.19868L15.1452 8.2037L15.1425 8.19822C15.1424 8.19828 15.1422 8.19835 15.1421 8.19842C15.1847 8.16878 15.2517 8.15871 15.33 8.16178C15.4063 8.16477 15.4946 8.18032 15.5839 8.20367C15.584 8.20589 15.5842 8.20779 15.5844 8.20929C15.5845 8.21045 15.5846 8.21138 15.5848 8.21204L15.5849 8.21281L15.5849 8.21304L15.5849 8.21311L15.585 8.21313L15.585 8.21314C15.585 8.21315 15.585 8.21315 15.591 8.21189L15.5925 8.20596C15.5897 8.20519 15.5868 8.20443 15.5839 8.20367C15.5838 8.20247 15.5838 8.20118 15.5838 8.19981C15.5838 8.19206 15.5849 8.18157 15.5894 8.1711C15.594 8.16052 15.602 8.15008 15.6156 8.14265C15.6291 8.13525 15.6477 8.13106 15.673 8.13212L15.673 8.13212V8.13212C15.7595 8.13624 15.8684 8.15681 15.9659 8.18659C16.0147 8.20148 16.0607 8.21871 16.0998 8.23742C16.1388 8.25608 16.1712 8.27638 16.1923 8.29755L16.1925 8.29775L16.1925 8.29775C16.2192 8.32707 16.2404 8.36096 16.255 8.3978L16.2443 8.40364C16.2254 8.37713 16.1888 8.36415 16.1518 8.35858C16.1151 8.35305 16.08 8.35508 16.0662 8.35705L16.0659 8.35709L16.0659 8.35708C16.0538 8.3583 16.0429 8.35881 16.0322 8.35931C16.0058 8.36055 15.9805 8.36174 15.9402 8.37324C15.934 8.37501 15.9276 8.37671 15.9209 8.37846C15.9115 8.38092 15.9017 8.38349 15.8918 8.38651C15.8753 8.39151 15.8599 8.39734 15.8484 8.40483C15.845 8.40836 15.8414 8.41375 15.8373 8.4204C15.8359 8.4228 15.8343 8.42539 15.8327 8.42806C15.83 8.43274 15.827 8.43767 15.8241 8.44225C15.8194 8.44953 15.8142 8.4567 15.8084 8.4621C15.8026 8.46749 15.7955 8.47166 15.7872 8.47166C15.7666 8.47166 15.7551 8.46965 15.747 8.4653C15.7429 8.46309 15.74 8.46041 15.7374 8.45767C15.7361 8.45637 15.7352 8.45527 15.7342 8.45419C15.7329 8.45269 15.7316 8.45124 15.7297 8.44941L15.7292 8.44887L15.7288 8.44823C15.7262 8.44377 15.7237 8.43913 15.7213 8.43476C15.7209 8.43395 15.7205 8.43316 15.7201 8.43238C15.7173 8.42725 15.7148 8.42267 15.7122 8.41889C15.7095 8.41506 15.7072 8.41254 15.7049 8.41115C15.703 8.40991 15.7011 8.40953 15.6988 8.41011L15.6983 8.41022L15.6979 8.41027C15.6758 8.41248 15.6459 8.40474 15.6108 8.38769C15.5755 8.37056 15.5342 8.34369 15.489 8.30668C15.442 8.26989 15.41 8.24799 15.3758 8.23609C15.3417 8.22423 15.3049 8.22212 15.2479 8.22619L15.2479 8.22619C15.1877 8.2302 15.1501 8.24921 15.1275 8.26683C15.1163 8.27567 15.1087 8.28422 15.104 8.29048C15.1017 8.29362 15.1 8.29618 15.099 8.29792C15.0985 8.29879 15.0981 8.29945 15.0979 8.29987L15.0977 8.30033L15.0976 8.30042C15.0976 8.30041 15.0976 8.30041 15.0976 8.3004L15.0859 8.2978V8.28961H15.0897C15.0898 8.28942 15.0899 8.28922 15.0901 8.28902L15.0921 8.28961M15.247 8.21395C15.247 8.21395 15.247 8.21395 15.247 8.21395L15.2475 8.22007L15.2471 8.21395C15.2471 8.21395 15.247 8.21395 15.247 8.21395ZM15.6963 8.39809C15.6961 8.39813 15.696 8.39817 15.6958 8.39821L15.6973 8.40416L15.6967 8.39805C15.6965 8.39807 15.6964 8.39808 15.6963 8.39809ZM15.739 8.44128C15.7391 8.44149 15.7392 8.4417 15.7393 8.44191L15.7341 8.44507L15.7384 8.44073C15.7386 8.44091 15.7388 8.4411 15.739 8.44128Z" fill="#C09300"/>
<path d="M15.7624 8.39591C15.7896 8.39591 15.8115 8.37393 15.8115 8.34682C15.8115 8.31971 15.7896 8.29773 15.7624 8.29773C15.7353 8.29773 15.7134 8.31971 15.7134 8.34682C15.7134 8.37393 15.7353 8.39591 15.7624 8.39591Z" fill="white"/>
</g>
</g>
<path d="M41.0252 10.792H44.2092V11.928H41.0252V15.224H39.8732V11.928H36.6892V10.792H39.8732V7.48H41.0252V10.792ZM53.3654 17H45.8134V15.832L48.8054 12.808C49.3814 12.232 49.8667 11.72 50.2614 11.272C50.6561 10.824 50.9547 10.3867 51.1574 9.96C51.3601 9.52267 51.4614 9.048 51.4614 8.536C51.4614 7.90667 51.2747 7.432 50.9014 7.112C50.5281 6.78133 50.0427 6.616 49.4454 6.616C48.8907 6.616 48.4001 6.712 47.9734 6.904C47.5574 7.096 47.1307 7.36267 46.6934 7.704L45.9414 6.76C46.2401 6.504 46.5654 6.27467 46.9174 6.072C47.2801 5.86933 47.6694 5.70933 48.0854 5.592C48.5121 5.47467 48.9654 5.416 49.4454 5.416C50.1601 5.416 50.7734 5.53867 51.2854 5.784C51.7974 6.02933 52.1921 6.38133 52.4694 6.84C52.7574 7.288 52.9014 7.82667 52.9014 8.456C52.9014 9.05333 52.7787 9.61333 52.5334 10.136C52.2881 10.6587 51.9467 11.176 51.5094 11.688C51.0721 12.1893 50.5601 12.728 49.9734 13.304L47.5894 15.656V15.72H53.3654V17ZM62.5697 11.272C62.5697 12.2 62.5003 13.0267 62.3617 13.752C62.223 14.4773 61.999 15.096 61.6897 15.608C61.391 16.1093 60.9963 16.4933 60.5057 16.76C60.0257 17.0267 59.4443 17.16 58.7617 17.16C57.9083 17.16 57.199 16.9253 56.6337 16.456C56.079 15.9867 55.663 15.3147 55.3857 14.44C55.119 13.5547 54.9857 12.4987 54.9857 11.272C54.9857 10.0347 55.1083 8.97867 55.3537 8.104C55.6097 7.22933 56.015 6.56267 56.5697 6.104C57.1243 5.63467 57.855 5.4 58.7617 5.4C59.615 5.4 60.3243 5.63467 60.8897 6.104C61.455 6.56267 61.8763 7.22933 62.1537 8.104C62.431 8.97867 62.5697 10.0347 62.5697 11.272ZM56.3937 11.272C56.3937 12.3173 56.4683 13.1867 56.6177 13.88C56.7777 14.5733 57.0283 15.096 57.3697 15.448C57.7217 15.7893 58.1857 15.96 58.7617 15.96C59.3377 15.96 59.7963 15.7893 60.1377 15.448C60.4897 15.1067 60.7457 14.5893 60.9057 13.896C61.0657 13.192 61.1457 12.3173 61.1457 11.272C61.1457 10.2267 61.0657 9.36267 60.9057 8.68C60.7457 7.98667 60.4897 7.46933 60.1377 7.128C59.7963 6.776 59.3377 6.6 58.7617 6.6C58.1857 6.6 57.7217 6.776 57.3697 7.128C57.0283 7.46933 56.7777 7.98667 56.6177 8.68C56.4683 9.36267 56.3937 10.2267 56.3937 11.272Z" fill="#212121"/>
<defs>
<clipPath id="clip0_249_58070">
<rect width="31.6235" height="24" rx="4" fill="white"/>
</clipPath>
<clipPath id="clip1_249_58070">
<rect width="32.714" height="24.5455" fill="white" transform="translate(-0.54541 -0.272705)"/>
</clipPath>
</defs>
</svg>
