<svg width="24" height="24" viewBox="0 0 24 24" fill="none" xmlns="http://www.w3.org/2000/svg">
<path d="M17.0391 1.4375C16.3562 1.4375 15.789 1.84472 15.374 2.36426C14.959 2.88379 14.6376 3.55395 14.3682 4.35156C13.8293 5.94679 13.5156 8.06201 13.5156 10.3975C13.5156 10.6027 13.5273 10.7984 13.5322 11H12.4785V8.70996C12.4785 7.80213 11.7633 7 10.834 7H10.5449V4.6875C10.5449 4.48859 10.4659 4.29784 10.3252 4.15719C10.1846 4.01654 9.99383 3.93752 9.79492 3.9375H6.95312C6.90862 3.92987 6.86351 3.92627 6.81836 3.92676C6.78169 3.92766 6.74513 3.93125 6.70898 3.9375H6.28516C5.518 3.9375 4.7811 4.24233 4.23828 4.78516C4.09764 4.92592 4.01869 5.11679 4.01878 5.31577C4.01887 5.51476 4.098 5.70555 4.23877 5.84619C4.37954 5.98683 4.57041 6.06579 4.76939 6.06569C4.96837 6.0656 5.15917 5.98647 5.2998 5.8457C5.50719 5.63831 5.79414 5.56974 6.0791 5.52246V7H5.66406C4.73478 7 4.01855 7.80213 4.01855 8.70996V11H2.75C2.0682 11 1.5 11.5682 1.5 12.25V15.25C1.5 15.8462 1.93494 16.3562 2.5 16.4746V19.75C2.5 21.536 3.96403 23 5.75 23H18.25C20.036 23 21.5 21.536 21.5 19.75V16.4746C22.0651 16.3562 22.5 15.8462 22.5 15.25V12.25C22.5 11.5682 21.9318 11 21.25 11H20.5479C20.5527 10.7988 20.5635 10.6022 20.5635 10.3975C20.5635 8.06201 20.2498 5.94679 19.7109 4.35156C19.4415 3.55395 19.1201 2.88379 18.7051 2.36426C18.2901 1.84472 17.722 1.4375 17.0391 1.4375ZM17.0391 2.9375C17.1222 2.9375 17.2845 2.98947 17.5332 3.30078C17.7819 3.61209 18.0576 4.14402 18.29 4.83203C18.7549 6.20806 19.0635 8.19892 19.0635 10.3975C19.0635 10.6024 19.0531 10.799 19.0479 11H15.0322C15.0269 10.7987 15.0156 10.6029 15.0156 10.3975C15.0156 10.2632 15.0202 10.1326 15.0225 10H16.75C16.8494 10.0014 16.9481 9.98304 17.0403 9.94598C17.1325 9.90892 17.2164 9.8539 17.2872 9.78412C17.358 9.71434 17.4142 9.63118 17.4526 9.53949C17.4909 9.4478 17.5107 9.34939 17.5107 9.25C17.5107 9.15061 17.4909 9.0522 17.4526 8.96051C17.4142 8.86882 17.358 8.78566 17.2872 8.71588C17.2164 8.6461 17.1325 8.59108 17.0403 8.55402C16.9481 8.51696 16.8494 8.49859 16.75 8.5H15.0967C15.1406 7.97537 15.2012 7.47409 15.2773 7H16.75C16.8494 7.00141 16.9481 6.98304 17.0403 6.94598C17.1325 6.90892 17.2164 6.8539 17.2872 6.78412C17.358 6.71434 17.4142 6.63118 17.4526 6.53949C17.4909 6.4478 17.5107 6.34939 17.5107 6.25C17.5107 6.15061 17.4909 6.0522 17.4526 5.96051C17.4142 5.86882 17.358 5.78566 17.2872 5.71588C17.2164 5.6461 17.1325 5.59108 17.0403 5.55402C16.9481 5.51696 16.8494 5.49859 16.75 5.5H15.5908C15.6534 5.26562 15.7189 5.03979 15.7891 4.83203C16.0215 4.14402 16.2972 3.61209 16.5459 3.30078C16.7946 2.98947 16.956 2.9375 17.0391 2.9375ZM7.5791 5.4375H9.04492V7H7.5791V5.4375ZM5.66406 8.5H6.8291H9.79492H10.834C10.8937 8.5 10.9785 8.55779 10.9785 8.70996V11H5.51855V8.70996C5.51855 8.55779 5.60434 8.5 5.66406 8.5ZM3 12.5H14.293H21V15H3V12.5ZM4 16.5H20V19.75C20 20.725 19.225 21.5 18.25 21.5H5.75C4.77497 21.5 4 20.725 4 19.75V16.5Z" fill="black"/>
</svg>
