<svg width="70" height="71" viewBox="0 0 70 71" fill="none" xmlns="http://www.w3.org/2000/svg">
<path d="M65.8783 0.854485L66.2405 0.833984L66.6846 0.861317L66.9921 0.915984L67.4124 1.03557L67.778 1.19273L68.1196 1.38748L68.4271 1.6164L68.7073 1.87265L68.885 2.07423L69.1651 2.47057L69.3428 2.79857C69.5034 3.14023 69.6059 3.5024 69.6503 3.87823L69.6674 4.2404C69.6674 4.49665 69.6401 4.74948 69.5854 4.99207L69.4658 5.41232L47.1481 67.1754C46.7251 68.0964 46.0466 68.8767 45.1933 69.4236C44.3399 69.9704 43.3476 70.261 42.3341 70.2606C41.4212 70.2635 40.5232 70.03 39.7275 69.5827C38.9317 69.1354 38.2654 68.4897 37.7933 67.7084L37.5712 67.2745L26.1186 44.376L3.32939 32.978C2.48616 32.5923 1.75896 31.992 1.22053 31.2372C0.682096 30.4823 0.351299 29.5992 0.261223 28.6764L0.240723 28.1673C0.240723 26.254 1.26914 24.5047 3.11414 23.4865L3.59247 23.2473L65.1506 1.01848L65.5127 0.915984L65.8783 0.854485Z" fill="#BA4E00"/>
</svg>
