<svg width="72" height="72" viewBox="0 0 72 72" fill="none" xmlns="http://www.w3.org/2000/svg">
<path d="M0.933105 0.933105V55.5998C0.933105 58.6064 3.36577 61.0664 6.39977 61.0664H29.6598C28.7578 58.4971 28.2664 55.7364 28.2664 52.8664C28.2664 50.4064 28.6194 48.0549 29.2754 45.8409C32.3094 35.6729 41.6871 28.2664 52.8664 28.2664C55.7638 28.2664 58.4971 28.7578 61.0664 29.6598V0.933105H0.933105ZM22.7998 6.39977H39.1998C40.7031 6.39977 41.9331 7.62977 41.9331 9.13311C41.9331 10.6364 40.7031 11.8664 39.1998 11.8664H22.7998C21.2964 11.8664 20.0664 10.6364 20.0664 9.13311C20.0664 7.62977 21.2964 6.39977 22.7998 6.39977ZM52.8664 33.7331C44.1744 33.7331 36.8739 39.5004 34.5232 47.3998C34.0039 49.1218 33.7331 50.9531 33.7331 52.8664C33.7331 55.8184 34.3882 58.5791 35.5909 61.0664C38.6523 67.5444 45.2131 71.9998 52.8664 71.9998C63.4444 71.9998 71.9998 63.4444 71.9998 52.8664C71.9998 45.2131 67.5444 38.6522 61.0664 35.5909C58.5791 34.3882 55.8184 33.7331 52.8664 33.7331ZM61.0664 44.6664C61.7771 44.6664 62.463 44.9372 63.0097 45.4565C64.0757 46.5225 64.0757 48.277 63.0097 49.343L61.0664 51.2809L52.0763 60.2763C51.5297 60.7957 50.8438 61.0664 50.1331 61.0664C49.4224 61.0664 48.7365 60.7957 48.1899 60.2763L42.7232 54.8097C41.6572 53.7437 41.6572 51.9892 42.7232 50.9232C43.7892 49.8572 45.5437 49.8572 46.6097 50.9232L50.1331 54.4787L57.1853 47.3998L59.1232 45.4565C59.6699 44.9372 60.3558 44.6664 61.0664 44.6664ZM30.9998 60.9597C30.9998 60.987 30.9737 61.0391 30.9464 61.0664H31.0532C31.0258 61.0391 30.9998 60.987 30.9998 60.9597Z" fill="#108723"/>
</svg>
