<svg width="24" height="24" viewBox="0 0 24 24" fill="none" xmlns="http://www.w3.org/2000/svg">
<path fill-rule="evenodd" clip-rule="evenodd" d="M11.5097 2.12842C11.8142 1.95719 12.1858 1.95719 12.4903 2.12842L20.4903 6.62842C20.8051 6.80554 21 7.13873 21 7.5V12C21 12.5523 20.5523 13 20 13C19.4477 13 19 12.5523 19 12V9.20985L13 12.5848V21C13 21.3553 12.8115 21.6839 12.5048 21.8632C12.1982 22.0426 11.8194 22.0457 11.5097 21.8716L3.50974 17.3716C3.19486 17.1945 3 16.8613 3 16.5V7.5C3 7.13873 3.19486 6.80554 3.50974 6.62842L11.5097 2.12842ZM12 10.8527L17.9603 7.5L12 4.14735L6.03973 7.5L12 10.8527ZM5 9.20985V15.9152L11 19.2902V12.5848L5 9.20985ZM18.7071 14.2929C19.0976 14.6834 19.0976 15.3166 18.7071 15.7071L17.4142 17H22C22.5523 17 23 17.4477 23 18C23 18.5523 22.5523 19 22 19H17.4142L18.7071 20.2929C19.0976 20.6834 19.0976 21.3166 18.7071 21.7071C18.3166 22.0976 17.6834 22.0976 17.2929 21.7071L14.2929 18.7071C13.9024 18.3166 13.9024 17.6834 14.2929 17.2929L17.2929 14.2929C17.6834 13.9024 18.3166 13.9024 18.7071 14.2929Z" fill="black"/>
</svg>
