<svg width="21" height="21" viewBox="0 0 21 21" fill="none" xmlns="http://www.w3.org/2000/svg">
<path d="M19.1723 4.88027V1.87793C19.1723 1.46309 18.8371 1.12793 18.4223 1.12793H2.57851C2.16366 1.12793 1.82851 1.46309 1.82851 1.87793V4.88027C1.4371 4.90371 1.12538 5.22949 1.12538 5.62793V8.71465C1.12388 9.28194 1.23875 9.84351 1.46288 10.3646C1.56366 10.6037 1.68788 10.8287 1.82851 11.042V19.1279C1.82851 19.5404 2.16366 19.8779 2.57851 19.8779H18.4223C18.8371 19.8779 19.1723 19.5428 19.1723 19.1279V11.042C19.3151 10.8282 19.4375 10.6014 19.5379 10.3646C19.7605 9.84199 19.8754 9.28652 19.8754 8.71465V5.62793C19.8754 5.22949 19.5637 4.90371 19.1723 4.88027ZM3.51601 2.81543H17.4848V4.87793H3.51601V2.81543ZM12.0004 18.1928H9.00038V15.7529H12.0004V18.1928ZM17.4848 18.1928H13.5004V15.0029C13.5004 14.5881 13.1652 14.2529 12.7504 14.2529H8.25038C7.83554 14.2529 7.50038 14.5881 7.50038 15.0029V18.1928H3.51601V12.5162C3.58397 12.549 3.65429 12.5818 3.72694 12.61C4.2496 12.8303 4.80507 12.9404 5.37694 12.9404C5.94882 12.9404 6.50194 12.8303 7.02694 12.61C7.35038 12.474 7.65507 12.3006 7.93397 12.092C7.93866 12.0896 7.94335 12.0896 7.94804 12.092C8.22781 12.3015 8.53248 12.4755 8.85507 12.61C9.37772 12.8303 9.93319 12.9404 10.5051 12.9404C11.0769 12.9404 11.6301 12.8303 12.1551 12.61C12.4785 12.474 12.7832 12.3006 13.0621 12.092C13.0668 12.0896 13.0715 12.0896 13.0762 12.092C13.3559 12.3015 13.6606 12.4755 13.9832 12.61C14.5058 12.8303 15.0613 12.9404 15.6332 12.9404C16.2051 12.9404 16.7582 12.8303 17.2832 12.61C17.3535 12.5795 17.4238 12.549 17.4941 12.5162V18.1928H17.4848ZM18.1879 8.71465C18.1879 10.1162 17.0394 11.2529 15.6262 11.2529C14.6699 11.2529 13.8355 10.735 13.3949 9.96621C13.3269 9.84902 13.2051 9.77637 13.0691 9.77637H13.0551C12.9215 9.77637 12.7973 9.84902 12.7293 9.96621C12.5044 10.3584 12.1798 10.684 11.7883 10.91C11.3968 11.136 10.9524 11.2543 10.5004 11.2529C9.54647 11.2529 8.71444 10.7373 8.27382 9.9709C8.20351 9.85137 8.07694 9.77637 7.93866 9.77637C7.80038 9.77637 7.67147 9.85137 7.60351 9.9709C7.37734 10.3615 7.05224 10.6857 6.66096 10.9108C6.26967 11.1358 5.826 11.2539 5.3746 11.2529C3.96132 11.2529 2.81288 10.1162 2.81288 8.71465V6.57715C2.81288 6.57012 2.81757 6.56543 2.8246 6.56543H18.1762C18.1832 6.56543 18.1879 6.57012 18.1879 6.57715V8.71465Z" fill="black" fill-opacity="0.85"/>
</svg>
