<svg width="14" height="14" viewBox="0 0 14 14" fill="none" xmlns="http://www.w3.org/2000/svg">
<path d="M7.00001 0.600098C3.46561 0.600098 0.600006 3.4657 0.600006 7.0001C0.600006 10.5345 3.46561 13.4001 7.00001 13.4001C10.5344 13.4001 13.4 10.5345 13.4 7.0001C13.4 3.4657 10.5344 0.600098 7.00001 0.600098ZM10.5771 5.77716L6.54507 9.80917C6.44481 9.90943 6.30934 9.96543 6.16801 9.96543C6.02667 9.96543 5.89067 9.90943 5.79094 9.80917L3.94934 7.96756C3.74081 7.75903 3.74081 7.42196 3.94934 7.21343C4.15787 7.0049 4.49494 7.0049 4.70347 7.21343L6.16801 8.67797L9.82294 5.02303C10.0315 4.8145 10.3685 4.8145 10.5771 5.02303C10.7856 5.23156 10.7856 5.56863 10.5771 5.77716Z" fill=""/>
</svg>
