<svg width="33" height="32" viewBox="0 0 33 32" fill="none" xmlns="http://www.w3.org/2000/svg">
<path d="M11.194 3.32038C10.8473 3.31692 10.5129 3.44863 10.2617 3.68757L6.80072 6.88288L5.36713 5.65501C5.23546 5.53322 5.08058 5.43924 4.91174 5.3787C4.74291 5.31816 4.5636 5.2923 4.38454 5.30267C4.20548 5.31304 4.03035 5.35943 3.86964 5.43906C3.70892 5.51868 3.56592 5.62992 3.4492 5.7661C3.33247 5.90228 3.24442 6.06061 3.19031 6.23161C3.1362 6.40261 3.11714 6.58277 3.13427 6.76131C3.15141 6.93985 3.20439 7.1131 3.29004 7.27068C3.37569 7.42827 3.49225 7.56696 3.63275 7.67845L5.96609 9.67845C6.21417 9.89107 6.53167 10.0052 6.85835 9.99922C7.18502 9.99321 7.49812 9.86749 7.73822 9.6459L12.0716 5.6459C12.2715 5.46637 12.4125 5.23063 12.4761 4.96959C12.5398 4.70854 12.523 4.43435 12.4282 4.18297C12.3333 3.93158 12.1647 3.71471 11.9445 3.56079C11.7242 3.40687 11.4626 3.32307 11.194 3.32038ZM15.1666 5.3334C14.9899 5.3309 14.8145 5.36354 14.6505 5.42943C14.4866 5.49531 14.3374 5.59313 14.2115 5.71719C14.0857 5.84125 13.9858 5.98908 13.9176 6.15209C13.8494 6.31509 13.8143 6.49003 13.8143 6.66673C13.8143 6.84343 13.8494 7.01837 13.9176 7.18138C13.9858 7.34439 14.0857 7.49222 14.2115 7.61628C14.3374 7.74034 14.4866 7.83815 14.6505 7.90404C14.8145 7.96992 14.9899 8.00256 15.1666 8.00007H28.4999C28.6766 8.00256 28.852 7.96992 29.016 7.90404C29.18 7.83815 29.3292 7.74034 29.455 7.61628C29.5808 7.49222 29.6808 7.34439 29.749 7.18138C29.8171 7.01837 29.8523 6.84343 29.8523 6.66673C29.8523 6.49003 29.8171 6.31509 29.749 6.15209C29.6808 5.98908 29.5808 5.84125 29.455 5.71719C29.3292 5.59313 29.18 5.49531 29.016 5.42943C28.852 5.36354 28.6766 5.3309 28.4999 5.3334H15.1666ZM11.194 12.3204C10.8473 12.3169 10.5129 12.4486 10.2617 12.6876L6.80072 15.8829L5.36713 14.655C5.23546 14.5332 5.08058 14.4392 4.91174 14.3787C4.74291 14.3182 4.5636 14.2923 4.38454 14.3027C4.20548 14.313 4.03035 14.3594 3.86964 14.4391C3.70892 14.5187 3.56592 14.6299 3.4492 14.7661C3.33247 14.9023 3.24442 15.0606 3.19031 15.2316C3.1362 15.4026 3.11714 15.5828 3.13427 15.7613C3.15141 15.9398 3.20439 16.1131 3.29004 16.2707C3.37569 16.4283 3.49225 16.567 3.63275 16.6785L5.96609 18.6785C6.21417 18.8911 6.53167 19.0052 6.85835 18.9992C7.18502 18.9932 7.49812 18.8675 7.73822 18.6459L12.0716 14.6459C12.2715 14.4664 12.4125 14.2306 12.4761 13.9696C12.5398 13.7085 12.523 13.4344 12.4282 13.183C12.3333 12.9316 12.1647 12.7147 11.9445 12.5608C11.7242 12.4069 11.4626 12.3231 11.194 12.3204ZM15.1666 14.6667C14.9899 14.6642 14.8145 14.6969 14.6505 14.7628C14.4866 14.8286 14.3374 14.9265 14.2115 15.0505C14.0857 15.1746 13.9858 15.3224 13.9176 15.4854C13.8494 15.6484 13.8143 15.8234 13.8143 16.0001C13.8143 16.1768 13.8494 16.3517 13.9176 16.5147C13.9858 16.6777 14.0857 16.8256 14.2115 16.9496C14.3374 17.0737 14.4866 17.1715 14.6505 17.2374C14.8145 17.3033 14.9899 17.3359 15.1666 17.3334H28.4999C28.6766 17.3359 28.852 17.3033 29.016 17.2374C29.18 17.1715 29.3292 17.0737 29.455 16.9496C29.5808 16.8256 29.6808 16.6777 29.749 16.5147C29.8171 16.3517 29.8523 16.1768 29.8523 16.0001C29.8523 15.8234 29.8171 15.6484 29.749 15.4854C29.6808 15.3224 29.5808 15.1746 29.455 15.0505C29.3292 14.9265 29.18 14.8286 29.016 14.7628C28.852 14.6969 28.6766 14.6642 28.4999 14.6667H15.1666ZM11.194 21.3204C10.8473 21.3169 10.5129 21.4486 10.2617 21.6876L6.80072 24.8829L5.36713 23.655C5.23546 23.5332 5.08058 23.4392 4.91174 23.3787C4.74291 23.3182 4.5636 23.2923 4.38454 23.3027C4.20548 23.313 4.03035 23.3594 3.86964 23.4391C3.70892 23.5187 3.56592 23.6299 3.4492 23.7661C3.33247 23.9023 3.24442 24.0606 3.19031 24.2316C3.1362 24.4026 3.11714 24.5828 3.13427 24.7613C3.15141 24.9398 3.20439 25.1131 3.29004 25.2707C3.37569 25.4283 3.49225 25.567 3.63275 25.6784L5.96609 27.6784C6.21417 27.8911 6.53167 28.0052 6.85835 27.9992C7.18502 27.9932 7.49812 27.8675 7.73822 27.6459L12.0716 23.6459C12.2715 23.4664 12.4125 23.2306 12.4761 22.9696C12.5398 22.7085 12.523 22.4344 12.4282 22.183C12.3333 21.9316 12.1647 21.7147 11.9445 21.5608C11.7242 21.4069 11.4626 21.3231 11.194 21.3204ZM15.1666 24.0001C14.9899 23.9976 14.8145 24.0302 14.6505 24.0961C14.4866 24.162 14.3374 24.2598 14.2115 24.3839C14.0857 24.5079 13.9858 24.6557 13.9176 24.8188C13.8494 24.9818 13.8143 25.1567 13.8143 25.3334C13.8143 25.5101 13.8494 25.685 13.9176 25.848C13.9858 26.0111 14.0857 26.1589 14.2115 26.2829C14.3374 26.407 14.4866 26.5048 14.6505 26.5707C14.8145 26.6366 14.9899 26.6692 15.1666 26.6667H28.4999C28.6766 26.6692 28.852 26.6366 29.016 26.5707C29.18 26.5048 29.3292 26.407 29.455 26.2829C29.5808 26.1589 29.6808 26.0111 29.749 25.848C29.8171 25.685 29.8523 25.5101 29.8523 25.3334C29.8523 25.1567 29.8171 24.9818 29.749 24.8188C29.6808 24.6557 29.5808 24.5079 29.455 24.3839C29.3292 24.2598 29.18 24.162 29.016 24.0961C28.852 24.0302 28.6766 23.9976 28.4999 24.0001H15.1666Z" fill="#B7B7B7"/>
</svg>
