<svg width="43" height="30" viewBox="0 0 43 30" fill="none" xmlns="http://www.w3.org/2000/svg">
<path d="M4.69992 0C3.15292 0 1.89992 1.253 1.89992 2.8V22.4C1.7144 22.3974 1.53022 22.4317 1.35806 22.5008C1.1859 22.57 1.02921 22.6727 0.897097 22.803C0.76498 22.9332 0.660069 23.0885 0.588462 23.2596C0.516855 23.4308 0.47998 23.6145 0.47998 23.8C0.47998 23.9855 0.516855 24.1692 0.588462 24.3404C0.660069 24.5115 0.76498 24.6668 0.897097 24.797C1.02921 24.9273 1.1859 25.03 1.35806 25.0992C1.53022 25.1683 1.7144 25.2026 1.89992 25.2H4.69992H6.17101C6.51737 27.5596 8.55001 29.4 10.9999 29.4C13.4498 29.4 15.4825 27.5596 15.8288 25.2H25.6999H28.571C28.9174 27.5596 30.95 29.4 33.3999 29.4C35.8498 29.4 37.8825 27.5596 38.2288 25.2H41.0999C41.2854 25.2026 41.4696 25.1683 41.6418 25.0992C41.8139 25.03 41.9706 24.9273 42.1027 24.797C42.2349 24.6668 42.3398 24.5115 42.4114 24.3404C42.483 24.1692 42.5199 23.9855 42.5199 23.8C42.5199 23.6145 42.483 23.4308 42.4114 23.2596C42.3398 23.0885 42.2349 22.9332 42.1027 22.803C41.9706 22.6727 41.8139 22.57 41.6418 22.5008C41.4696 22.4317 41.2854 22.3974 41.0999 22.4V15.4H32.6999V9.8C32.6999 9.0272 33.3271 8.4 34.0999 8.4H38.1003L37.6273 7.29805C37.1863 6.26905 36.1742 5.6 35.0542 5.6H25.6999V2.8C25.6999 1.253 24.4469 0 22.8999 0H4.69992ZM10.9999 22.4C12.1763 22.4 13.0999 23.3236 13.0999 24.5C13.0999 25.6764 12.1763 26.6 10.9999 26.6C9.82354 26.6 8.89992 25.6764 8.89992 24.5C8.89992 23.3236 9.82354 22.4 10.9999 22.4ZM33.3999 22.4C34.5763 22.4 35.4999 23.3236 35.4999 24.5C35.4999 25.6764 34.5763 26.6 33.3999 26.6C32.2235 26.6 31.2999 25.6764 31.2999 24.5C31.2999 23.3236 32.2235 22.4 33.3999 22.4Z" fill="#B7B7B7"/>
</svg>
