<svg width="76" height="67" viewBox="0 0 76 67" fill="none" xmlns="http://www.w3.org/2000/svg">
<path d="M37.9998 0.705566C41.2627 0.705566 44.3035 2.30115 46.1656 4.96615L46.5244 5.51282L74.2472 51.8018C75.0897 53.261 75.5481 54.9101 75.5795 56.5948C75.6108 58.2794 75.2141 59.9445 74.4265 61.434C73.6389 62.9235 72.4862 64.1888 71.0762 65.1114C69.6663 66.0339 68.0452 66.5835 66.365 66.7087L65.6987 66.7361H10.2633C8.58128 66.7171 6.93149 66.2724 5.4679 65.4432C4.00432 64.6141 2.77466 63.4277 1.89372 61.9947C1.01277 60.5617 0.509256 58.9289 0.43017 57.2486C0.351085 55.5684 0.699007 53.8955 1.44146 52.3861L1.77971 51.754L29.4889 5.49915C30.3761 4.03618 31.6253 2.82652 33.1161 1.98688C34.6068 1.14724 36.2888 0.705943 37.9998 0.705566ZM38.034 46.2497L37.6 46.2737C36.7696 46.3724 36.0043 46.7723 35.449 47.3976C34.8936 48.0229 34.5869 48.8301 34.5869 49.6664C34.5869 50.5027 34.8936 51.3099 35.449 51.9352C36.0043 52.5605 36.7696 52.9604 37.6 53.0592L37.9998 53.0831L38.4337 53.0592C39.2641 52.9604 40.0295 52.5605 40.5848 51.9352C41.1401 51.3099 41.4468 50.5027 41.4468 49.6664C41.4468 48.8301 41.1401 48.0229 40.5848 47.3976C40.0295 46.7723 39.2641 46.3724 38.4337 46.2737L38.034 46.2497ZM37.9998 22.3331C37.1629 22.3332 36.3552 22.6404 35.7299 23.1965C35.1045 23.7526 34.705 24.5189 34.607 25.35L34.5831 25.7497V39.4164L34.607 39.8162C34.7058 40.6466 35.1057 41.4119 35.731 41.9672C36.3563 42.5226 37.1635 42.8293 37.9998 42.8293C38.8361 42.8293 39.6433 42.5226 40.2686 41.9672C40.8939 41.4119 41.2938 40.6466 41.3925 39.8162L41.4165 39.4164V25.7497L41.3925 25.35C41.2946 24.5189 40.8951 23.7526 40.2697 23.1965C39.6444 22.6404 38.8367 22.3332 37.9998 22.3331Z" fill="#BA4E00"/>
</svg>
