<svg width="24" height="24" viewBox="0 0 48 48" fill="none" xmlns="http://www.w3.org/2000/svg">
<path d="M23.9766 7.97845C23.5791 7.98466 23.2003 8.14839 22.9235 8.43367C22.6466 8.71895 22.4943 9.10245 22.5 9.49994V28.4999C22.4972 28.6987 22.5339 28.8961 22.608 29.0805C22.6822 29.265 22.7922 29.4328 22.9318 29.5744C23.0713 29.7159 23.2376 29.8284 23.421 29.9051C23.6044 29.9818 23.8012 30.0213 24 30.0213C24.1988 30.0213 24.3956 29.9818 24.579 29.9051C24.7624 29.8284 24.9287 29.7159 25.0682 29.5744C25.2078 29.4328 25.3178 29.265 25.392 29.0805C25.4661 28.8961 25.5028 28.6987 25.5 28.4999V9.49994C25.5029 9.29917 25.4654 9.09987 25.3899 8.91385C25.3143 8.72782 25.2022 8.55886 25.0601 8.41698C24.918 8.27509 24.7489 8.16317 24.5628 8.08784C24.3767 8.01251 24.1773 7.97532 23.9766 7.97845ZM18.5664 9.61517C18.431 9.61126 18.2956 9.62571 18.1641 9.65814C12.5691 10.9428 7.66545 14.0318 4.0957 18.2773C3.96887 18.4281 3.87298 18.6024 3.81352 18.7903C3.75406 18.9782 3.73218 19.1759 3.74913 19.3722C3.78338 19.7687 3.97374 20.1354 4.27832 20.3915C4.58291 20.6477 4.97677 20.7724 5.37327 20.7381C5.5696 20.7212 5.76066 20.6657 5.93556 20.5749C6.11045 20.4841 6.26575 20.3597 6.39258 20.2089C9.55283 16.4504 13.8909 13.7173 18.8359 12.582C19.1949 12.5055 19.5133 12.3002 19.7311 12.0048C19.9488 11.7094 20.0507 11.3445 20.0175 10.979C19.9843 10.6135 19.8183 10.2729 19.5509 10.0216C19.2835 9.77025 18.9332 9.62566 18.5664 9.61517ZM29.5391 9.61517C29.4889 9.61331 29.4387 9.61396 29.3887 9.61713C29.0262 9.63837 28.6837 9.79037 28.4248 10.0449C28.1658 10.2995 28.008 10.6393 27.9806 11.0014C27.9532 11.3635 28.058 11.7232 28.2756 12.0138C28.4932 12.3045 28.8089 12.5064 29.1641 12.582C34.1089 13.7173 38.4471 16.4503 41.6074 20.2089C41.7329 20.3635 41.888 20.4915 42.0635 20.5855C42.239 20.6795 42.4314 20.7376 42.6296 20.7565C42.8278 20.7754 43.0278 20.7546 43.2179 20.6954C43.408 20.6362 43.5844 20.5398 43.7368 20.4117C43.8893 20.2836 44.0147 20.1265 44.1058 19.9495C44.1969 19.7724 44.2518 19.5791 44.2674 19.3806C44.283 19.1821 44.2589 18.9825 44.1966 18.7934C44.1342 18.6043 44.0349 18.4295 43.9043 18.2792C40.3346 14.0338 35.4311 10.9428 29.8359 9.65814C29.7387 9.63394 29.6392 9.61954 29.5391 9.61517ZM18.541 17.9374C18.3558 17.9349 18.1717 17.9667 17.998 18.0312C14.6992 19.2029 11.8497 21.3084 9.75391 24.0253C9.62816 24.1808 9.53474 24.3598 9.47916 24.5518C9.42357 24.7439 9.40694 24.9451 9.43023 25.1436C9.45352 25.3422 9.51627 25.5341 9.61478 25.7081C9.7133 25.8821 9.8456 26.0346 10.0039 26.1567C10.1622 26.2788 10.3433 26.3681 10.5366 26.4192C10.7299 26.4703 10.9314 26.4823 11.1294 26.4544C11.3274 26.4265 11.5178 26.3593 11.6894 26.2568C11.8611 26.1543 12.0105 26.0185 12.1289 25.8574C13.8791 23.5883 16.2588 21.8317 19.002 20.8574C19.3364 20.7434 19.6199 20.515 19.8025 20.2124C19.985 19.9098 20.0549 19.5525 19.9998 19.2035C19.9447 18.8545 19.7682 18.5361 19.5013 18.3044C19.2344 18.0728 18.8943 17.9429 18.541 17.9374ZM29.4141 17.9374C29.0652 17.9536 28.7329 18.091 28.4745 18.3259C28.216 18.5608 28.0477 18.8785 27.9984 19.2242C27.9491 19.57 28.022 19.9221 28.2045 20.2199C28.3869 20.5176 28.6676 20.7424 28.998 20.8554C31.7418 21.8308 34.121 23.5885 35.8711 25.8574C35.9895 26.0185 36.1389 26.1543 36.3106 26.2568C36.4822 26.3593 36.6726 26.4265 36.8706 26.4544C37.0686 26.4823 37.2701 26.4703 37.4634 26.4192C37.6567 26.3681 37.8378 26.2788 37.9961 26.1567C38.1544 26.0346 38.2867 25.8821 38.3852 25.7081C38.4837 25.5341 38.5465 25.3422 38.5698 25.1436C38.5931 24.9451 38.5764 24.7439 38.5208 24.5518C38.4653 24.3598 38.3718 24.1808 38.2461 24.0253C36.1502 21.3082 33.3002 19.2018 30.002 18.0292C29.8141 17.9597 29.6142 17.9285 29.4141 17.9374ZM29.4746 26.9863C29.1636 26.9815 28.8588 27.0735 28.6024 27.2495C28.3459 27.4256 28.1506 27.677 28.0433 27.9689C27.936 28.2609 27.9222 28.579 28.0037 28.8792C28.0851 29.1794 28.2579 29.4468 28.498 29.6445C29.1012 30.1544 29.6195 30.7658 30.0234 31.4492C30.1221 31.6219 30.2541 31.7734 30.4118 31.8946C30.5695 32.0159 30.7498 32.1046 30.9421 32.1555C31.1344 32.2065 31.3349 32.2186 31.532 32.1913C31.7291 32.1641 31.9187 32.0978 32.09 31.9965C32.2612 31.8953 32.4106 31.7609 32.5294 31.6014C32.6482 31.4418 32.7341 31.2602 32.7821 31.0671C32.8301 30.874 32.8392 30.6733 32.8088 30.4767C32.7785 30.2801 32.7094 30.0915 32.6055 29.9218C32.0294 28.9472 31.2943 28.0815 30.4355 27.3554C30.1688 27.1229 29.8284 26.9921 29.4746 26.9863ZM18.4395 27.0156C18.1016 27.0327 17.7795 27.1634 17.5254 27.3867C16.6832 28.1056 15.9618 28.9622 15.3945 29.9238C15.2895 30.0936 15.2195 30.2827 15.1886 30.4799C15.1576 30.6771 15.1663 30.8786 15.2142 31.0724C15.2621 31.2662 15.3482 31.4485 15.4674 31.6086C15.5867 31.7688 15.7367 31.9035 15.9087 32.0049C16.0806 32.1063 16.2711 32.1723 16.469 32.1991C16.6668 32.226 16.868 32.213 17.0608 32.1611C17.2536 32.1091 17.434 32.0193 17.5916 31.8967C17.7492 31.7741 17.8807 31.6213 17.9785 31.4472C18.3752 30.7748 18.8828 30.173 19.4746 29.6679C19.717 29.4666 19.8899 29.1941 19.9687 28.8891C20.0476 28.584 20.0283 28.2619 19.9138 27.9683C19.7992 27.6748 19.5952 27.4248 19.3305 27.2538C19.0659 27.0828 18.7541 26.9994 18.4395 27.0156ZM24 32.9999C23.2044 32.9999 22.4413 33.316 21.8787 33.8786C21.3161 34.4412 21 35.2043 21 35.9999C21 36.7956 21.3161 37.5586 21.8787 38.1213C22.4413 38.6839 23.2044 38.9999 24 38.9999C24.7956 38.9999 25.5587 38.6839 26.1213 38.1213C26.6839 37.5586 27 36.7956 27 35.9999C27 35.2043 26.6839 34.4412 26.1213 33.8786C25.5587 33.316 24.7956 32.9999 24 32.9999Z" fill="" />
</svg>
